<svg width="95" height="80" viewBox="0 0 95 80" fill="none" xmlns="http://www.w3.org/2000/svg">
<mask id="mask0_1_370" style="mask-type:luminance" maskUnits="userSpaceOnUse" x="0" y="0" width="95" height="80">
<path d="M94.7368 0H0V80H94.7368V0Z" fill="white"/>
</mask>
<g mask="url(#mask0_1_370)">
<path fill-rule="evenodd" clip-rule="evenodd" d="M26.7598 34.5925C26.7598 35.7621 26.8862 36.7105 27.1075 37.4059C27.3604 38.1013 27.6765 38.86 28.1191 39.6819C28.2771 39.9348 28.3403 40.1877 28.3403 40.4089C28.3403 40.725 28.1507 41.0411 27.7397 41.3573L25.7483 42.6849C25.4638 42.8746 25.1793 42.9694 24.9264 42.9694C24.6103 42.9694 24.2942 42.8113 23.978 42.5269C23.5355 42.0527 23.1562 41.5469 22.8401 41.0411C22.524 40.5038 22.2078 39.9032 21.8601 39.1761C19.3945 42.0843 16.2966 43.5384 12.5665 43.5384C9.91118 43.5384 7.7933 42.7797 6.24437 41.2624C4.69544 39.7451 3.90517 37.722 3.90517 35.1931C3.90517 32.5062 4.85349 30.3251 6.78175 28.6813C8.71001 27.0376 11.2705 26.2157 14.5264 26.2157C15.6012 26.2157 16.7076 26.3105 17.8772 26.4686C19.0468 26.6266 20.248 26.8795 21.5124 27.164V24.8564C21.5124 22.454 21.0066 20.7786 20.0267 19.7987C19.0152 18.8187 17.3082 18.3446 14.8741 18.3446C13.7678 18.3446 12.6298 18.471 11.4602 18.7555C10.2906 19.04 9.15256 19.3877 8.04618 19.8303C7.54041 20.0516 7.16108 20.178 6.9398 20.2412C6.71853 20.3045 6.56047 20.3361 6.43403 20.3361C5.99148 20.3361 5.7702 20.02 5.7702 19.3561V17.8072C5.7702 17.3014 5.83343 16.9221 5.99148 16.7008C6.14953 16.4795 6.43403 16.2583 6.87658 16.037C7.98296 15.468 9.31061 14.9938 10.8596 14.6145C12.4085 14.2036 14.0523 14.0139 15.7908 14.0139C19.5525 14.0139 22.3027 14.8674 24.0729 16.5744C25.8115 18.2814 26.6966 20.8735 26.6966 24.3506V34.5925H26.7598ZM13.9258 39.3974C14.969 39.3974 16.0437 39.2077 17.1817 38.8284C18.3197 38.4491 19.3313 37.7536 20.1848 36.8053C20.6905 36.2047 21.0699 35.5409 21.2595 34.7822C21.4492 34.0235 21.5756 33.1068 21.5756 32.0321V30.7044C20.6589 30.4831 19.679 30.2935 18.6674 30.167C17.6559 30.0406 16.676 29.9774 15.696 29.9774C13.5781 29.9774 12.0292 30.3883 10.986 31.2418C9.94288 32.0953 9.43706 33.2965 9.43706 34.877C9.43706 36.3627 9.81639 37.4691 10.6067 38.2278C11.3653 39.0181 12.4717 39.3974 13.9258 39.3974ZM39.3093 42.8113C38.7403 42.8113 38.361 42.7165 38.1081 42.4952C37.8552 42.3056 37.6339 41.863 37.4443 41.2624L30.0157 16.8273C29.826 16.1951 29.7312 15.7841 29.7312 15.5628C29.7312 15.0571 29.9841 14.7726 30.4899 14.7726H33.5877C34.1883 14.7726 34.5993 14.8674 34.8206 15.0887C35.0734 15.2783 35.2631 15.7209 35.4528 16.3215L40.7634 37.2478L45.6947 16.3215C45.8527 15.6893 46.0424 15.2783 46.2953 15.0887C46.5482 14.899 46.9907 14.7726 47.5597 14.7726H50.0886C50.6892 14.7726 51.1001 14.8674 51.353 15.0887C51.6059 15.2783 51.8272 15.7209 51.9536 16.3215L56.9481 37.5007L62.4168 16.3215C62.6065 15.6893 62.8277 15.2783 63.049 15.0887C63.3019 14.899 63.7128 14.7726 64.2818 14.7726H67.2216C67.7274 14.7726 68.0119 15.0255 68.0119 15.5628C68.0119 15.6978 67.9888 15.8327 67.9624 15.9874L67.9487 16.0686C67.9171 16.2583 67.8538 16.5112 67.7274 16.8589L60.1092 41.294C59.9195 41.9262 59.6983 42.3372 59.4454 42.5269C59.1925 42.7165 58.7815 42.843 58.2442 42.843H55.5256C54.925 42.843 54.5141 42.7481 54.2612 42.5269C54.0083 42.3056 53.787 41.8946 53.6606 41.2624L48.7609 20.8734L43.8929 41.2308C43.7348 41.863 43.5451 42.274 43.2923 42.4952C43.0394 42.7165 42.5968 42.8113 42.0278 42.8113H39.3093ZM79.9292 43.6648C78.2854 43.6648 76.6416 43.4752 75.0611 43.0958C73.4806 42.7165 72.2477 42.3056 71.4259 41.8314C70.9201 41.5469 70.5724 41.2308 70.4459 40.9463C70.3195 40.6618 70.2563 40.3457 70.2563 40.0612V38.4491C70.2563 37.7852 70.5092 37.4691 70.9833 37.4691C71.173 37.4691 71.3626 37.5007 71.5523 37.564C71.6748 37.6048 71.8368 37.672 72.0213 37.7485C72.1226 37.7905 72.2306 37.8353 72.3426 37.8801C73.4173 38.3542 74.5869 38.7336 75.8198 38.9864C77.0842 39.2393 78.317 39.3658 79.5815 39.3658C81.5729 39.3658 83.1219 39.0181 84.1966 38.3226C85.2714 37.6272 85.8404 36.6156 85.8404 35.3196C85.8404 34.4345 85.5559 33.7074 84.9869 33.1068C84.4179 32.5062 83.3431 31.9688 81.7942 31.4631L77.2106 30.0406C74.9031 29.3135 73.1961 28.2388 72.1529 26.8163C71.1098 25.4254 70.5724 23.8765 70.5724 22.2327C70.5724 20.9051 70.8569 19.7355 71.4259 18.7239C71.9949 17.7124 72.7535 16.8273 73.7018 16.1318C74.6502 15.4048 75.7249 14.8674 76.9894 14.4881C78.2538 14.1087 79.5815 13.9507 80.9723 13.9507C81.6678 13.9507 82.3948 13.9823 83.0902 14.0771C83.8173 14.172 84.4811 14.2984 85.1449 14.4248C85.7772 14.5829 86.3778 14.741 86.9468 14.9306C87.5158 15.1203 87.9583 15.3099 88.2744 15.4996C88.717 15.7525 89.0331 16.0054 89.2227 16.2899C89.4124 16.5428 89.5072 16.8905 89.5072 17.333V18.8187C89.5072 19.4826 89.2544 19.8303 88.7802 19.8303C88.5273 19.8303 88.1164 19.7039 87.579 19.451C85.7772 18.6291 83.7541 18.2181 81.5097 18.2181C79.7079 18.2181 78.2854 18.5026 77.3055 19.1032C76.3255 19.7038 75.8198 20.6206 75.8198 21.9166C75.8198 22.8017 76.1359 23.5604 76.7681 24.161C77.4003 24.7616 78.5699 25.3622 80.2453 25.8996L84.734 27.3221C87.01 28.0491 88.6538 29.0606 89.6337 30.3567C90.6136 31.6527 91.0878 33.1384 91.0878 34.7822C91.0878 36.1415 90.8033 37.3743 90.2659 38.4491C89.6969 39.5238 88.9382 40.4721 87.9583 41.2308C86.9784 42.0211 85.8088 42.5901 84.4495 43.001C83.027 43.4436 81.5413 43.6648 79.9292 43.6648ZM85.9039 59.0278C75.5039 66.7092 60.394 70.787 47.4019 70.787C29.1941 70.787 12.7881 64.0539 0.396647 52.8637C-0.583288 51.9786 0.301815 50.7774 1.47142 51.4728C14.8744 59.2491 31.4069 63.9591 48.5083 63.9591C60.0463 63.9591 72.7222 61.5567 84.3866 56.6254C86.1252 55.8351 87.6109 57.7634 85.9039 59.0278ZM78.0639 53.6854C81.4462 53.2745 88.9064 52.3894 90.234 54.0963C91.5617 55.7717 88.7483 62.8209 87.4839 65.9504C87.1046 66.8987 87.9264 67.2781 88.7799 66.551C94.3434 61.8726 95.7975 52.1049 94.6595 50.6824C93.5215 49.2915 83.7538 48.0903 77.811 52.2629C76.8943 52.9268 77.0523 53.8119 78.0639 53.6854Z" fill="url(#paint0_linear_1_370)"/>
</g>
<defs>
<linearGradient id="paint0_linear_1_370" x1="47.4976" y1="13.9507" x2="47.4976" y2="78.104" gradientUnits="userSpaceOnUse">
<stop stop-color="#1FBCCB" stop-opacity="0.8"/>
<stop offset="1" stop-color="#1FBCCB"/>
</linearGradient>
</defs>
</svg>
