<svg width="58" height="69" viewBox="0 0 58 69" fill="none" xmlns="http://www.w3.org/2000/svg">
<path d="M52.2669 62.1895L28.9997 68.795L5.7322 62.1895L0.363037 0.860229H57.6367L52.2669 62.1895Z" fill="url(#paint0_linear_225_58)"/>
<path d="M12.3256 28.4751L12.8778 35.715L28.9786 28.4567V21.1626L12.3256 28.4751Z" fill="#020E0F"/>
<path d="M46.8161 13.33L28.9789 21.1624V28.4566L46.106 20.7359L46.8161 13.33Z" fill="#020E0F"/>
<path d="M12.3512 28.475L12.9036 35.7149L37.6082 35.7979L37.0556 45.4511L28.9264 47.8641L21.1118 45.7837L20.6383 39.7921H13.3771L14.3243 51.3591L29.0053 55.9359L43.6067 51.4422L45.501 28.475H12.3512Z" fill="#020E0F"/>
<path opacity="0.05" d="M28.9788 28.475H12.3257L12.8779 35.7149L28.9788 35.7691V28.475ZM28.9788 47.841L28.8998 47.8642L21.0863 45.7839L20.6128 39.7922H13.3518L14.2988 51.3593L28.9788 55.9361V47.841Z" fill="#020E0F"/>
<path d="M10.8259 13.33H46.816L46.1059 20.7361H11.694L10.8259 13.33Z" fill="#020E0F"/>
<path opacity="0.05" d="M28.9788 13.33H10.8259L11.694 20.7361H28.9788V13.33Z" fill="black"/>
<defs>
<linearGradient id="paint0_linear_225_58" x1="28.9999" y1="0.860229" x2="28.9999" y2="68.795" gradientUnits="userSpaceOnUse">
<stop offset="0.254999" stop-color="white"/>
<stop offset="0.794999" stop-color="#414141"/>
</linearGradient>
</defs>
</svg>
