<svg width="139" height="46" viewBox="0 0 139 46" fill="none" xmlns="http://www.w3.org/2000/svg">
<path d="M13.8535 33.8752C14.0788 37.1597 12.5832 38.651 11.0232 39.215C9.43958 39.7875 7.75628 39.5733 6.25282 38.7344C4.54997 37.7843 2.88924 36.7357 1.26085 35.6408C0.396027 35.0594 -0.00736765 34.1627 0.000101807 32.9638C0.0411786 26.3682 0.037439 19.7721 0.00474407 13.1764C-0.00155918 11.9048 0.44528 10.9838 1.40424 10.3648C4.3587 8.45763 7.32781 6.5772 10.2977 4.69849C12.5186 3.29358 14.7534 1.91459 16.9743 0.509624C17.989 -0.132286 19.1088 -0.163031 20.051 0.390437C22.9791 2.11058 25.8399 3.96706 28.715 5.79274C31.1388 7.3319 33.538 8.91705 35.9649 10.4504C36.8744 11.0251 37.2688 11.9057 37.2725 12.9632C37.2964 19.7878 37.2995 26.6125 37.2794 33.4371C37.275 34.9496 36.1694 35.6464 35.1636 36.2967C31.7081 38.5308 28.2231 40.711 24.7459 42.9053C23.3679 43.7748 22.007 44.6831 20.5895 45.4697C19.4997 46.0744 18.2739 46.2264 17.1702 45.5852C15.3907 44.5513 13.6766 43.3832 11.9499 42.2448C11.7375 42.1048 11.3928 42.0042 11.4168 41.6106C11.444 41.1642 11.8478 41.2091 12.0752 41.0191C14.2742 39.1815 15.8222 41.1396 17.4744 42.1534C18.2019 42.5998 18.7291 42.7594 19.4751 42.2822C22.4325 40.3905 25.4138 38.5444 28.3612 36.6322C30.2041 35.4365 32.1142 34.352 33.9524 33.1376C34.0958 33.0429 34.2868 33.0041 34.3404 32.6987C34.4808 32.3718 34.4419 32.1014 34.4418 31.8384C34.4374 25.6875 34.4562 19.5366 34.3997 13.2814C31.5158 11.3618 28.6692 9.5404 25.8148 7.73346C23.8895 6.51469 21.8848 5.42574 20.0482 4.06699C18.9817 3.27799 18.1638 3.43894 17.2026 4.04949C13.2841 6.53863 9.3601 9.01756 5.43621 11.4967C4.89729 11.8372 4.34925 12.1608 3.80266 12.4868C3.07118 12.923 2.72874 13.5193 2.73564 14.4966C2.77623 20.2507 2.77183 26.0054 2.7387 31.7596C2.73355 32.6551 3.03165 33.1378 3.75068 33.5241C5.11564 34.2575 6.36925 35.2187 7.76964 35.8909C9.23231 36.5929 10.5042 35.8758 10.7649 34.0892C10.8861 33.7894 10.8617 33.5574 10.8615 33.3309C10.8559 27.2805 10.8764 21.23 10.815 15.0763C10.8512 14.7237 10.9505 14.494 11.2413 14.3582C12.065 14.5093 12.8246 14.3712 13.6511 14.4928C13.724 14.5452 13.705 14.5404 13.7072 14.5301C13.8987 14.9156 13.8044 15.3417 13.8053 15.7524C13.8185 21.758 13.7973 27.7637 13.8535 33.8752Z" fill="url(#paint0_linear_226_61)"/>
<path d="M54.7751 19.6441C54.9283 19.2548 55.0679 18.9525 55.2092 18.6511C55.4626 18.1106 55.9221 18.2742 56.3168 18.2824C56.8518 18.2936 56.6437 18.7794 56.6459 19.0644C56.6633 21.2984 56.6387 23.5329 56.6679 25.7665C56.6748 26.293 56.5558 26.6596 56.0996 26.7952C55.6349 26.9332 55.379 26.5486 55.211 26.1753C54.911 25.5087 54.8139 24.7201 54.2151 24.2423C53.9672 24.0445 53.7383 23.7956 53.4639 23.6646C52.0859 23.0068 51.8456 23.1917 51.8456 24.8497C51.8456 26.2364 51.89 27.6255 51.8302 29.009C51.7891 29.9583 52.298 30.4362 52.9586 30.4822C54.9124 30.6185 56.8537 30.6195 58.5839 29.256C59.2321 28.7452 59.6531 28.1277 60.0241 27.4045C60.2638 26.9372 60.5783 26.442 61.1195 26.6392C61.6479 26.8318 61.7736 27.4087 61.6682 27.9816C61.4046 29.4144 61.1006 30.8381 60.8416 32.2718C60.7662 32.6888 60.5081 32.5949 60.2899 32.5954C57.4318 32.6023 54.5522 32.8347 51.723 32.519C49.7624 32.3001 47.8721 32.7057 45.9487 32.6126C45.3426 32.5833 44.7789 32.5267 44.7522 31.7145C44.7257 30.9075 45.2467 30.7359 45.88 30.7449C46.9241 30.7599 47.2203 29.9382 47.2303 29.0216C47.2733 25.0696 47.5917 21.1241 47.455 17.1682C47.3874 15.2109 47.3197 15.0838 45.6938 14.582C45.3866 14.4872 45.1747 14.3667 45.1604 14.0024C45.1457 13.6246 45.0763 13.2156 45.4793 12.9921C45.8212 12.8026 46.1686 12.6711 46.5643 12.7213C50.6193 13.2363 54.6888 12.8424 58.7508 12.9375C59.5479 12.9561 59.9904 12.9985 60.0624 14.1292C60.1399 15.3454 60.5871 16.5346 60.6289 17.7857C60.6406 18.136 60.6679 18.5143 60.3145 18.6848C59.9214 18.8745 59.4649 18.7105 59.276 18.4136C58.9948 17.9716 58.5623 17.6691 58.3518 17.2C57.3867 15.0489 54.1613 14.4882 52.3403 15.0585C51.8804 15.2025 51.8757 15.7794 51.864 16.1816C51.8205 17.6823 51.8574 19.1857 51.8396 20.6877C51.8344 21.1322 51.9654 21.2745 52.3756 21.2873C53.4817 21.3215 54.3042 20.883 54.7751 19.6441Z" fill="url(#paint1_linear_226_61)"/>
<path d="M27.8353 20.3827C27.6477 20.1965 27.5036 20.0617 27.4668 19.8992C27.0589 18.0985 25.8886 17.3155 24.174 17.1099C23.3037 16.9401 22.5126 17.0458 21.6455 17.0614C20.8106 17.1154 20.1519 17.444 19.485 17.7881C18.8127 18.135 18.8404 18.7485 18.7677 19.3909C18.6866 20.1071 19.1334 20.3006 19.5756 20.5211C20.9278 21.1955 22.4126 21.2039 23.8482 21.4539C25.3895 21.7222 26.936 21.9455 28.4228 22.4967C31.6013 23.6752 31.7704 27.6845 30.2962 29.8119C29.1998 31.3942 27.6666 32.0313 25.9698 32.3816C23.4759 32.8964 20.9781 32.7668 18.5928 31.8964C16.4482 31.1139 14.9654 29.3303 14.9175 26.736C14.9033 25.9674 15.2079 25.7178 15.8754 25.7756C16.229 25.8063 16.5912 25.8189 16.9419 25.7732C17.787 25.663 18.1223 25.9929 18.1645 26.939C18.2157 28.0877 19.4993 29.2641 21.5164 29.3983C22.953 29.4938 24.4087 29.5338 25.8469 29.2038C26.9425 28.9524 27.8143 28.1542 27.9204 27.014C28.0014 26.1427 27.4393 25.6286 26.7362 25.3717C25.5441 24.9362 24.293 24.8023 23.0448 24.6482C21.2479 24.4264 19.443 24.2389 17.7564 23.4327C14.8958 22.0654 14.8406 17.7364 16.8549 15.7643C18.165 14.4816 19.7713 14.069 21.4592 13.9582C23.3235 13.8358 25.1591 14.0067 26.9734 14.6037C29.21 15.3398 30.8072 17.9756 30.3906 20.2871C29.5252 20.5392 28.7242 20.392 27.8353 20.3827Z" fill="url(#paint2_linear_226_61)"/>
<path d="M83.8287 38.0891C84.4807 38.1766 85.2307 37.9786 85.2118 38.9605C85.1935 39.9122 84.4567 40.0209 83.8331 39.9141C82.4798 39.6824 81.1259 39.7596 79.7721 39.6991C79.1166 39.6698 78.5111 39.8865 77.8773 39.9386C77.238 39.9911 76.6664 39.7255 76.6218 39.0677C76.5807 38.4617 77.0992 38.1293 77.7029 38.1359C78.783 38.1477 78.9301 37.2271 78.9124 36.524C78.8328 33.3727 79.3885 30.2327 79.1238 27.0963C78.9881 25.4885 78.9506 23.891 78.9634 22.2888C78.9695 21.5245 78.522 21.2701 77.9959 21.2181C77.3789 21.1571 77.1892 20.8998 77.2086 20.2965C77.2323 19.5549 77.7132 19.56 78.1892 19.6123C79.5213 19.7584 80.8161 19.3158 82.1424 19.3737C83.0152 19.4117 83.0162 19.3876 83.0925 20.4237C83.9243 20.0668 84.6748 19.6166 85.6227 19.5717C88.7599 19.4233 91.084 21.9991 91.4594 24.9685C91.8176 27.8024 90.944 30.2466 88.5177 31.8505C87.106 32.7838 85.5605 32.9904 83.9518 32.4926C82.8214 32.1427 82.7264 32.139 82.8706 33.4179C83.0048 34.6086 83.0703 35.7915 83.0519 36.9829C83.0433 37.5347 83.4961 37.7127 83.8287 38.0891Z" fill="url(#paint3_linear_226_61)"/>
<path d="M65.0493 19.6305C66.2814 19.5348 67.4203 19.7969 68.5523 19.4276C69.1287 19.2396 69.7762 19.5016 69.8801 20.1842C70.0004 20.975 69.3274 21.1578 68.7216 21.3089C69.2302 22.0328 69.7326 22.7477 70.2846 23.5332C70.5912 22.8914 71.0857 22.4758 71.4948 21.9793C71.7134 21.714 71.9352 21.3057 71.3772 21.2596C70.7548 21.2082 70.5852 20.9286 70.5957 20.3235C70.6076 19.6433 71.1465 19.42 71.5164 19.4464C72.7418 19.5339 73.9455 19.7608 75.1873 19.4684C75.4471 19.4072 76.0421 19.677 75.9966 20.314C75.9587 20.8444 75.6875 21.2205 75.2135 21.2086C74.3928 21.1881 73.8973 21.6922 73.4173 22.2553C72.9187 22.8402 72.4232 23.4308 71.9654 24.0513C71.535 24.6348 71.3306 25.1027 71.9789 25.8584C72.9879 27.0347 73.739 28.4588 74.7681 29.6401C75.2236 30.163 75.682 30.7039 76.3965 30.8163C77.039 30.9174 77.4345 31.299 77.2536 31.9637C77.0854 32.5816 76.4757 32.782 75.9452 32.6386C74.4581 32.2368 72.9583 32.5222 71.4678 32.4393C71.1577 32.422 70.8553 32.4592 70.5322 32.5721C69.9116 32.7889 69.2948 32.6166 69.1149 31.856C68.9169 31.0186 69.4833 30.8558 70.11 30.8198C70.1984 30.8148 70.2833 30.7431 70.4242 30.6765C70.1637 30.2761 69.9809 29.8564 69.6829 29.5723C69.3137 29.2203 69.2126 28.2444 68.7014 28.4982C67.9957 28.8486 67.4234 29.6003 67.0945 30.4002C66.9899 30.6545 67.4484 30.8569 67.7606 30.8244C68.4861 30.7491 68.7712 31.1107 68.6546 31.8301C68.5395 32.5406 67.9653 32.7432 67.4517 32.6308C66.2148 32.3603 65.0118 32.3393 63.7796 32.6407C63.3019 32.7576 62.7656 32.6687 62.6343 32.0022C62.5072 31.3572 62.7033 30.8715 63.402 30.84C64.2586 30.8013 64.8293 30.2743 65.3557 29.6499C65.9231 28.9767 66.4896 28.3025 67.0506 27.6233C67.5401 27.0308 67.5479 26.4559 67.0687 25.8189C66.1271 24.5672 65.2262 23.2811 64.3086 22.0091C64.0125 21.5987 63.5406 21.4736 63.1354 21.2813C62.6304 21.0415 62.2468 20.7923 62.4247 20.1481C62.591 19.5458 63.0905 19.4433 63.5999 19.403C64.0656 19.3662 64.4664 19.7658 65.0493 19.6305Z" fill="url(#paint4_linear_226_61)"/>
<path d="M106.673 31.5567C103.256 28.7316 104.198 23.2958 106.377 21.1558C108.129 19.4351 110.944 18.7773 113.101 19.9862C114.849 20.9659 115.769 22.7446 115.94 24.8838C116.025 25.9419 115.226 26.0718 114.499 26.0826C112.82 26.1077 111.14 26.1132 109.46 26.0791C108.827 26.0663 108.495 26.0394 108.717 26.9829C108.91 27.8012 109.013 28.5963 109.517 29.2922C110.538 30.7034 112.006 30.6302 113.238 29.8249C113.553 29.6192 113.855 29.372 114.116 29.0922C114.493 28.6887 114.955 28.6262 115.318 28.9191C115.721 29.2449 115.627 29.7585 115.378 30.2203C114.573 31.7139 113.188 32.3298 111.792 32.5381C110.076 32.7943 108.27 32.8466 106.673 31.5567Z" fill="url(#paint5_linear_226_61)"/>
<path d="M136.715 24.5723C137.934 25.4252 138.996 26.33 139 28.0341C139.006 30.6472 137.164 32.7441 134.864 32.6829C133.746 32.6532 132.626 32.7434 131.636 32.012C131.388 31.829 131.275 31.9126 131.046 32.1838C130.549 32.7709 129.937 32.4947 129.719 31.7357C129.361 30.4917 129.576 29.2241 129.532 27.9685C129.518 27.5701 129.606 27.1532 130.069 27.054C130.526 26.9558 130.89 27.152 131.108 27.5782C131.467 28.2796 131.756 29.0153 132.173 29.692C132.678 30.5129 133.351 30.8426 134.203 30.8711C134.733 30.8889 135.279 30.7992 135.47 30.1938C135.7 29.4673 135.251 28.9721 134.732 28.6472C133.775 28.0482 132.777 27.5288 131.808 26.9503C129.724 25.7051 129.172 23.6336 130.299 21.3541C130.972 19.9931 133.279 19.036 134.831 19.477C135.28 19.6048 135.75 19.688 136.17 19.8909C136.517 20.0587 136.739 20.0949 137.089 19.8373C137.682 19.4003 138.019 19.6789 138.192 20.4364C138.436 21.5029 138.365 22.573 138.383 23.6451C138.389 24.0208 138.424 24.4251 137.988 24.5555C137.621 24.6656 137.346 24.4849 137.089 24.1856C136.486 23.4844 136.324 22.4731 135.593 21.8413C135.018 21.3439 134.413 21.1338 133.729 21.2247C133.381 21.2708 132.95 21.4009 132.845 21.8466C132.73 22.3343 133.126 22.5276 133.424 22.7807C134.393 23.6017 135.617 23.8594 136.715 24.5723Z" fill="url(#paint6_linear_226_61)"/>
<path d="M118.861 25.8422C117.9 24.2671 117.837 22.6586 118.751 21.2073C119.839 19.4797 121.63 19.1637 123.334 19.4738C123.805 19.5595 124.334 19.6229 124.756 20.0079C124.93 20.1664 125.16 20.2026 125.461 19.8963C125.986 19.3618 126.653 19.663 126.738 20.3981C126.853 21.3887 126.879 22.3907 126.966 23.3856C127.015 23.9429 126.833 24.3846 126.353 24.535C125.792 24.7107 125.508 24.3031 125.251 23.7908C124.805 22.9035 124.491 21.8845 123.506 21.445C122.608 21.0443 121.785 20.9333 121.169 21.9931C122.156 23.3715 123.751 23.7049 125.05 24.5505C125.572 24.8905 126.177 25.0772 126.583 25.6207C127.675 27.0814 127.713 28.7074 126.966 30.2699C126.258 31.7497 125.067 32.6712 123.424 32.6714C122.263 32.6716 121.08 32.8226 120.026 32.0809C119.738 31.8787 119.538 32.105 119.289 32.258C118.538 32.7192 118.033 32.4264 118.001 31.4911C117.96 30.2917 117.994 29.0895 117.988 27.8885C117.986 27.4904 118.01 27.1039 118.474 27.0574C118.881 27.0165 119.239 26.9941 119.489 27.5538C119.914 28.505 120.28 29.4939 121.042 30.2605C121.72 30.9429 122.466 30.9281 123.253 30.8317C123.643 30.7839 123.946 30.4456 124.007 30.0441C124.084 29.5459 123.862 29.1132 123.437 28.8504C122.086 28.0156 120.729 27.1908 119.382 26.3495C119.205 26.2395 119.069 26.0554 118.861 25.8422Z" fill="url(#paint7_linear_226_61)"/>
<path d="M93.8274 30.5974C94.1509 30.0908 94.2323 29.6223 94.2251 29.102C94.1926 26.7427 94.252 24.3852 94.0298 22.0263C93.9555 21.2378 93.5039 21.1578 93.0551 21.0495C92.4584 20.9057 92.157 20.6559 92.2238 19.9617C92.2986 19.184 92.8555 19.4353 93.2758 19.2874C94.4727 18.8662 95.7284 19.2573 96.9344 18.8731C97.8415 18.5841 97.9401 18.78 98.0018 20.5035C98.9501 19.4303 99.9671 18.695 101.326 18.8413C103.432 19.0679 104.045 20.7439 103.609 22.5419C103.439 23.2452 102.888 23.6734 102.171 23.7513C101.365 23.839 100.662 23.6578 100.18 22.8797C99.9618 22.528 99.8559 21.8771 99.4103 21.9664C98.9603 22.0565 98.7262 22.6404 98.6416 23.1373C98.3349 24.9378 97.908 26.7347 98.3672 28.5836C98.4308 28.8397 98.4298 29.1263 98.4036 29.3926C98.3141 30.3029 98.4602 30.9231 99.5489 30.7962C100.041 30.7389 100.321 31.134 100.396 31.6618C100.478 32.2398 100.048 32.377 99.7026 32.5514C99.3282 32.7408 98.9058 32.7012 98.5201 32.5967C97.0746 32.2051 95.5979 32.3356 94.1672 32.5024C93.2807 32.6058 92.4613 32.7561 92.2882 31.7208C92.1057 30.6297 93.1749 30.8918 93.8274 30.5974Z" fill="url(#paint8_linear_226_61)"/>
<path d="M14.1023 33.8948C13.2684 33.6064 13.647 33.1234 13.645 32.684C13.6167 26.6679 13.626 20.6518 13.6305 14.5264C14.6146 14.7287 14.1087 15.1876 14.1112 15.5646C14.151 21.639 14.1354 27.7135 14.1023 33.8948Z" fill="#837CBE"/>
<path d="M27.8 20.2237C28.6353 19.9914 29.5187 19.9769 30.5122 19.9736C29.7244 21.1086 28.7736 20.3167 27.8 20.2237Z" fill="#DCCEF0"/>
<path d="M86.4101 29.2898C86.0231 30.2786 85.4954 31.0398 84.4385 30.8348C83.3786 30.6293 83.0801 29.812 82.8715 28.7297C82.5245 26.9286 82.8467 25.22 83.1746 23.5103C83.3085 22.8116 83.503 21.923 84.4768 21.8034C85.489 21.679 85.8894 22.4071 86.188 23.1933C86.9343 25.1585 86.9616 27.1695 86.4101 29.2898Z" fill="black"/>
<path d="M111.366 24.2095C110.356 24.2105 109.444 24.2105 108.488 24.2105C108.568 23.7175 108.602 23.2889 108.709 22.8862C109.045 21.629 109.687 21.0349 110.464 21.2162C111.308 21.4129 111.981 22.6844 111.865 23.8023C111.832 24.1221 111.705 24.2125 111.366 24.2095Z" fill="black"/>
<defs>
<linearGradient id="paint0_linear_226_61" x1="18.6463" y1="0" x2="18.6463" y2="46" gradientUnits="userSpaceOnUse">
<stop offset="0.589999" stop-color="white"/>
<stop offset="1" stop-color="#2B2B2B"/>
</linearGradient>
<linearGradient id="paint1_linear_226_61" x1="44.7512" y1="22.6974" x2="61.7024" y2="22.6974" gradientUnits="userSpaceOnUse">
<stop offset="0.599999" stop-color="white"/>
<stop offset="1"/>
</linearGradient>
<linearGradient id="paint2_linear_226_61" x1="23.0536" y1="13.921" x2="23.0536" y2="32.6842" gradientUnits="userSpaceOnUse">
<stop offset="0.529999" stop-color="white"/>
<stop offset="1"/>
</linearGradient>
<linearGradient id="paint3_linear_226_61" x1="76.6195" y1="29.6579" x2="91.5366" y2="29.6579" gradientUnits="userSpaceOnUse">
<stop offset="0.599999" stop-color="white"/>
<stop offset="1"/>
</linearGradient>
<linearGradient id="paint4_linear_226_61" x1="62.3805" y1="26.0263" x2="77.2976" y2="26.0263" gradientUnits="userSpaceOnUse">
<stop offset="0.599999" stop-color="white"/>
<stop offset="1"/>
</linearGradient>
<linearGradient id="paint5_linear_226_61" x1="104.419" y1="26.0263" x2="115.946" y2="26.0263" gradientUnits="userSpaceOnUse">
<stop offset="0.599999" stop-color="white"/>
<stop offset="1"/>
</linearGradient>
<linearGradient id="paint6_linear_226_61" x1="129.507" y1="26.0263" x2="139" y2="26.0263" gradientUnits="userSpaceOnUse">
<stop offset="0.599999" stop-color="white"/>
<stop offset="1"/>
</linearGradient>
<linearGradient id="paint7_linear_226_61" x1="117.98" y1="26.0263" x2="127.473" y2="26.0263" gradientUnits="userSpaceOnUse">
<stop offset="0.599999" stop-color="white"/>
<stop offset="1"/>
</linearGradient>
<linearGradient id="paint8_linear_226_61" x1="92.2147" y1="25.7237" x2="103.741" y2="25.7237" gradientUnits="userSpaceOnUse">
<stop offset="0.599999" stop-color="white"/>
<stop offset="1"/>
</linearGradient>
</defs>
</svg>
