<svg width="59" height="80" viewBox="0 0 59 80" fill="none" xmlns="http://www.w3.org/2000/svg">
<mask id="mask0_1_364" style="mask-type:luminance" maskUnits="userSpaceOnUse" x="0" y="0" width="59" height="80">
<path d="M58.8079 0H0V80H58.8079V0Z" fill="white"/>
</mask>
<g mask="url(#mask0_1_364)">
<path fill-rule="evenodd" clip-rule="evenodd" d="M49.6185 16.373C50.2666 16.582 50.744 17.1332 50.8566 17.8026L58.3161 63.788L58.3351 63.7775L58.3804 64.184L31.9114 78.8616C30.9747 79.3739 29.9259 79.5958 28.8922 79.5269C28.1033 79.4744 27.3233 79.2526 26.6085 78.8617L0.366211 64.184L0.366413 64.1827L0.411597 63.7775L0.428327 63.7869L10.1561 1.58945C10.428 -0.126704 12.7395 -0.533162 13.5553 1.00235L23.7531 19.8801L27.7869 12.2025C28.085 11.6009 28.7 11.2201 29.3733 11.2201C30.0466 11.2201 30.6615 11.6009 30.9596 12.2025L38.3927 26.2479L47.7746 16.8091C48.2594 16.3322 48.9704 16.1641 49.6185 16.373Z" fill="url(#paint0_linear_1_364)"/>
</g>
<defs>
<linearGradient id="paint0_linear_1_364" x1="29.3733" y1="0.0483398" x2="29.3733" y2="89.7726" gradientUnits="userSpaceOnUse">
<stop stop-color="#136168"/>
<stop offset="1" stop-color="#1FBCCB"/>
</linearGradient>
</defs>
</svg>
