<svg width="64" height="65" viewBox="0 0 64 65" fill="none" xmlns="http://www.w3.org/2000/svg">
<path d="M0 0H64V65H0V0Z" fill="url(#paint0_linear_224_53)"/>
<path d="M16.828 54.3186L21.7255 51.3083C22.6705 53.0098 23.53 54.4494 25.5917 54.4494C27.568 54.4494 28.8142 53.6643 28.8142 50.6103V29.8413H34.8285V50.6967C34.8285 57.0233 31.177 59.9031 25.8495 59.9031C21.0382 59.9031 18.2455 57.3724 16.8277 54.3181M38.0952 53.6641L42.9922 50.7845C44.2815 52.9227 45.957 54.4933 48.921 54.4933C51.4132 54.4933 53.0022 53.2279 53.0022 51.4825C53.0022 49.3883 51.3697 48.6464 48.6202 47.4251L47.117 46.77C42.7777 44.8944 39.8995 42.5382 39.8995 37.5641C39.8995 32.9826 43.3362 29.4919 48.7065 29.4919C52.53 29.4919 55.2795 30.8448 57.2555 34.3789L52.5725 37.4334C51.5412 35.5573 50.4247 34.8156 48.7062 34.8156C46.9447 34.8156 45.8277 35.95 45.8277 37.4334C45.8277 39.2658 46.9447 40.008 49.5222 41.1424L51.0257 41.7967C56.1382 44.0222 59.0165 46.2909 59.0165 51.3954C59.0165 56.8935 54.7635 59.9038 49.0497 59.9038C43.465 59.9038 39.8562 57.1987 38.095 53.6643" fill="#272727"/>
<defs>
<linearGradient id="paint0_linear_224_53" x1="32" y1="0" x2="32" y2="65" gradientUnits="userSpaceOnUse">
<stop offset="0.634666" stop-color="white"/>
<stop offset="1" stop-color="#353535"/>
<stop offset="1" stop-color="#393939"/>
</linearGradient>
</defs>
</svg>
