<svg width="80" height="74" viewBox="0 0 80 74" fill="none" xmlns="http://www.w3.org/2000/svg">
<path d="M40 74C62.0914 74 80 57.4345 80 37C80 16.5655 62.0914 0 40 0C17.9086 0 0 16.5655 0 37C0 57.4345 17.9086 74 40 74Z" fill="url(#paint0_linear_226_79)"/>
<path d="M40.4604 53.7455L39.5245 53.8117L40.019 53.0582L39.8846 52.97C39.3085 52.5807 36.8311 50.8176 34.5707 47.8478C32.3078 44.8747 30.2976 40.7414 30.5635 35.5816C31.1445 24.3085 38.2773 18.7884 39.6251 17.8137L39.6871 17.7689L39.7415 17.7151C39.9079 17.5509 40.0584 17.3935 40.1931 17.2378C40.3546 17.5097 40.5291 17.7804 40.7087 18.0209C40.8683 18.2994 41.103 18.5563 41.3075 18.7672C41.5093 18.9753 41.7583 19.2134 42.025 19.4684C42.0838 19.5246 42.1434 19.5817 42.2036 19.6394C42.8848 20.2926 43.7365 21.1278 44.6429 22.231C46.4454 24.4249 48.4901 27.7105 49.7142 32.6898C49.9529 33.9776 50.0774 35.281 50.0867 36.5871C50.1302 44.4076 45.6763 49.3212 43.1696 51.4646L43.1176 51.5079L43.112 51.5126L43.1064 51.5174C42.9253 51.6733 42.7399 51.825 42.5505 51.9724L42.5464 51.8275C42.5423 51.6824 42.5361 51.4698 42.5281 51.1992C42.5122 50.6579 42.4889 49.8849 42.4597 48.9572C42.4012 47.1022 42.3187 44.6281 42.2229 42.1532C42.1271 39.6801 42.0178 37.1997 41.9053 35.3349C41.8492 34.4048 41.7917 33.6151 41.7335 33.0523C41.7048 32.7754 41.6736 32.5289 41.638 32.3413C41.6216 32.2546 41.5962 32.136 41.5548 32.0217C41.5363 31.9709 41.4935 31.8595 41.4107 31.7424C41.3578 31.6677 41.0916 31.3074 40.5781 31.3056C40.2555 31.3044 40.0196 31.4498 39.8864 31.5676C39.7608 31.6787 39.6876 31.7967 39.65 31.8643C39.5746 32.0003 39.5341 32.1363 39.512 32.2184C39.4637 32.3988 39.429 32.6185 39.4014 32.8394C39.3445 33.2946 39.2982 33.9219 39.2595 34.6457C39.1816 36.1008 39.1301 38.0312 39.0959 39.9497C39.0616 41.8711 39.0445 43.7914 39.0359 45.2307C39.0316 45.9505 39.0295 46.5504 39.0284 46.9705C39.0279 47.1806 39.0276 47.3457 39.0275 47.4584L39.0274 47.5872L39.0274 47.6203L39.0274 47.6288V47.6309V47.6315C39.0274 47.6316 39.0274 47.6317 40.0274 47.6317H39.0274C39.0274 48.3635 39.2468 49.5581 39.5479 50.5586C39.7003 51.065 39.8907 51.5802 40.1164 51.9941C40.2282 52.1992 40.3701 52.4197 40.5497 52.606C40.6843 52.7455 40.9007 52.9285 41.1987 53.0211L41.1371 53.2775C40.9717 53.9655 40.8209 54.6564 40.685 55.3498C40.6229 54.884 40.5686 54.4956 40.5288 54.2169C40.508 54.0712 40.4912 53.9554 40.4793 53.8742L40.4653 53.7791L40.4604 53.7455ZM41.5531 52.0782C42.0782 52.0636 42.3274 52.0566 42.4458 52.0532C42.4457 52.0532 42.4457 52.0533 42.4457 52.0533L41.5531 52.0782ZM41.4465 32.7273C41.4465 32.7274 41.4459 32.7297 41.4444 32.734C41.4457 32.7294 41.4464 32.7272 41.4465 32.7273Z" fill="#303030" stroke="url(#paint1_linear_226_79)" stroke-width="2"/>
<defs>
<linearGradient id="paint0_linear_226_79" x1="40" y1="0" x2="40" y2="74" gradientUnits="userSpaceOnUse">
<stop stop-color="white"/>
<stop offset="1" stop-color="#333333"/>
</linearGradient>
<linearGradient id="paint1_linear_226_79" x1="40.3134" y1="14.8145" x2="40.3134" y2="59.1863" gradientUnits="userSpaceOnUse">
<stop/>
<stop offset="0.0001" stop-color="white"/>
</linearGradient>
</defs>
</svg>
