<svg width="51" height="71" viewBox="0 0 51 71" fill="none" xmlns="http://www.w3.org/2000/svg">
<path fill-rule="evenodd" clip-rule="evenodd" d="M39.7257 52.3133V70.0396L40.101 70.4151H43.7964L44.1717 70.0396V52.3133L43.7964 51.938H40.101L39.7257 52.3133ZM39.7257 0.37532V18.1017L40.101 18.4771H43.7964L44.1717 18.1017V0.37532L43.7964 0H40.101L39.7257 0.37532ZM23.1541 57.25H23.6737L29.7943 51.1585V48.3868L29.419 48.0116H26.6474L20.5557 54.1032V54.6228L23.1541 57.25ZM23.1541 13.1649H23.6737L29.7943 19.2565V22.0282L29.419 22.4035H26.6474L20.5557 16.3118V15.7922L23.1541 13.1649ZM25.4926 32.999H0.37532L0 33.3742V37.0696L0.37532 37.445H25.4926L25.8679 37.0696V33.3742L25.4926 32.999ZM45.4418 44.172L45.8171 44.5472H50.2343L50.6096 44.172V33.0857C50.6096 29.2171 48.5887 25.7815 43.5941 25.7815L33.6049 25.868L33.2296 26.2433V44.172L33.6049 44.5472H38.051L38.4263 44.172V30.4007L38.6284 30.1987C40.043 30.1409 41.3422 30.1121 42.497 30.1409C44.7201 30.1698 45.4418 31.6132 45.4418 33.4609V44.172Z" fill="url(#paint0_linear_226_105)"/>
<defs>
<linearGradient id="paint0_linear_226_105" x1="25.3048" y1="0" x2="25.3048" y2="70.4151" gradientUnits="userSpaceOnUse">
<stop offset="0.654999" stop-color="white"/>
<stop offset="1" stop-color="#313131"/>
</linearGradient>
</defs>
</svg>
