<svg width="151" height="80" viewBox="0 0 151 80" fill="none" xmlns="http://www.w3.org/2000/svg">
<path d="M47.8272 22.3021H47.6059V22.5234V52.1278V52.3491H47.8272H67.857H68.0783V52.1278V50.5522V50.331H67.857H49.8656V37.7542H66.5768H66.798V37.5329V35.9573V35.7361H66.5768H49.8656V24.3202H67.6505H67.8718V24.099V22.5234V22.3021H67.6505H47.8272ZM69.4264 22.3021H68.9953L69.2466 22.6524L79.4781 36.9101L68.5041 51.9977L68.2485 52.3491H68.683H70.8305H70.9434L71.0097 52.2577L80.8657 38.6568L90.681 52.2573L90.7472 52.3491H90.8604H93.0492H93.4818L93.2286 51.9983L82.3345 36.908L103.564 6.1114L103.208 5.84924L90.232 22.3868L90.2276 22.3926L80.8681 35.1657L71.7124 22.3945L71.6462 22.3021H71.5326H69.4264ZM93.6126 24.099V24.3202H93.8339H103.979V52.1278V52.3491H104.2H106.017H106.238V52.1278V24.3202H116.424H116.645V24.099V22.5234V22.3021H116.424H93.8339H93.6126V22.5234V24.099ZM23.0273 22.3021H22.8061V22.5234V52.1278V52.3491H23.0273H24.8445H25.0651L25.0657 52.1285L25.1462 25.4736L43.4941 52.2529L43.4996 52.2606L56.4434 69.5259L56.8044 69.2703L25.4827 22.4004L25.417 22.3021H25.2988H23.0273ZM118.027 48.1207H117.805V48.342C117.805 48.9466 118.025 49.4611 118.416 49.8232C118.806 50.1837 119.349 50.3777 119.971 50.3777C120.63 50.3777 121.185 50.1786 121.576 49.7816C121.965 49.385 122.164 48.818 122.164 48.134V43.6156V43.3943H121.943H120.953H120.731V43.6156V48.1296C120.731 48.4514 120.65 48.6637 120.531 48.794C120.415 48.9212 120.233 49.0014 119.963 49.0014C119.726 49.0014 119.545 48.928 119.423 48.8167C119.303 48.7063 119.225 48.5449 119.22 48.3364L119.215 48.1207H118.999H118.027ZM123.238 48.0632H123.002L123.017 48.2981C123.056 48.9321 123.342 49.4594 123.816 49.824C124.287 50.1858 124.929 50.3777 125.673 50.3777C126.463 50.3777 127.132 50.1776 127.607 49.793C128.088 49.4042 128.351 48.8425 128.351 48.1694C128.351 47.6432 128.201 47.2083 127.851 46.867C127.511 46.535 127.003 46.3138 126.334 46.1575C126.334 46.1574 126.333 46.1573 126.333 46.1572L125.633 45.9852L125.63 45.9846C125.223 45.8892 124.97 45.784 124.821 45.6677C124.688 45.5635 124.634 45.4489 124.634 45.2884C124.634 45.0759 124.727 44.9028 124.902 44.7759C125.082 44.6447 125.358 44.5582 125.717 44.5582C126.387 44.5582 126.776 44.8786 126.846 45.3273L126.876 45.5141H127.065H128.028H128.262L128.249 45.281C128.184 44.0552 127.107 43.2394 125.73 43.2394C124.996 43.2394 124.362 43.4391 123.908 43.8098C123.45 44.1838 123.189 44.7206 123.189 45.3548C123.189 45.8685 123.334 46.301 123.657 46.6406C123.973 46.9743 124.44 47.1956 125.038 47.3358C125.038 47.3359 125.039 47.3359 125.039 47.336L125.859 47.5347L125.861 47.535C126.272 47.6322 126.538 47.7457 126.697 47.8736C126.844 47.9911 126.906 48.1227 126.906 48.2977C126.906 48.4967 126.806 48.6786 126.608 48.8186C126.407 48.9606 126.11 49.0545 125.748 49.0545C124.946 49.0545 124.5 48.7009 124.438 48.2541L124.411 48.0632H124.219H123.238ZM115.37 49.4174C115.37 49.9071 115.744 50.298 116.241 50.298C116.744 50.298 117.112 49.9061 117.112 49.4174C117.112 48.9287 116.744 48.5367 116.241 48.5367C115.744 48.5367 115.37 48.9277 115.37 49.4174Z" fill="url(#paint0_linear_225_54)"/>
<path d="M47.8272 22.3021H47.6059V22.5234V52.1278V52.3491H47.8272H67.857H68.0783V52.1278V50.5522V50.331H67.857H49.8656V37.7542H66.5768H66.798V37.5329V35.9573V35.7361H66.5768H49.8656V24.3202H67.6505H67.8718V24.099V22.5234V22.3021H67.6505H47.8272ZM69.4264 22.3021H68.9953L69.2466 22.6524L79.4781 36.9101L68.5041 51.9977L68.2485 52.3491H68.683H70.8305H70.9434L71.0097 52.2577L80.8657 38.6568L90.681 52.2573L90.7472 52.3491H90.8604H93.0492H93.4818L93.2286 51.9983L82.3345 36.908L103.564 6.1114L103.208 5.84924L90.232 22.3868L90.2276 22.3926L80.8681 35.1657L71.7124 22.3945L71.6462 22.3021H71.5326H69.4264ZM93.6126 24.099V24.3202H93.8339H103.979V52.1278V52.3491H104.2H106.017H106.238V52.1278V24.3202H116.424H116.645V24.099V22.5234V22.3021H116.424H93.8339H93.6126V22.5234V24.099ZM23.0273 22.3021H22.8061V22.5234V52.1278V52.3491H23.0273H24.8445H25.0651L25.0657 52.1285L25.1462 25.4736L43.4941 52.2529L43.4996 52.2606L56.4434 69.5259L56.8044 69.2703L25.4827 22.4004L25.417 22.3021H25.2988H23.0273ZM118.027 48.1207H117.805V48.342C117.805 48.9466 118.025 49.4611 118.416 49.8232C118.806 50.1837 119.349 50.3777 119.971 50.3777C120.63 50.3777 121.185 50.1786 121.576 49.7816C121.965 49.385 122.164 48.818 122.164 48.134V43.6156V43.3943H121.943H120.953H120.731V43.6156V48.1296C120.731 48.4514 120.65 48.6637 120.531 48.794C120.415 48.9212 120.233 49.0014 119.963 49.0014C119.726 49.0014 119.545 48.928 119.423 48.8167C119.303 48.7063 119.225 48.5449 119.22 48.3364L119.215 48.1207H118.999H118.027ZM123.238 48.0632H123.002L123.017 48.2981C123.056 48.9321 123.342 49.4594 123.816 49.824C124.287 50.1858 124.929 50.3777 125.673 50.3777C126.463 50.3777 127.132 50.1776 127.607 49.793C128.088 49.4042 128.351 48.8425 128.351 48.1694C128.351 47.6432 128.201 47.2083 127.851 46.867C127.511 46.535 127.003 46.3138 126.334 46.1575C126.334 46.1574 126.333 46.1573 126.333 46.1572L125.633 45.9852L125.63 45.9846C125.223 45.8892 124.97 45.784 124.821 45.6677C124.688 45.5635 124.634 45.4489 124.634 45.2884C124.634 45.0759 124.727 44.9028 124.902 44.7759C125.082 44.6447 125.358 44.5582 125.717 44.5582C126.387 44.5582 126.776 44.8786 126.846 45.3273L126.876 45.5141H127.065H128.028H128.262L128.249 45.281C128.184 44.0552 127.107 43.2394 125.73 43.2394C124.996 43.2394 124.362 43.4391 123.908 43.8098C123.45 44.1838 123.189 44.7206 123.189 45.3548C123.189 45.8685 123.334 46.301 123.657 46.6406C123.973 46.9743 124.44 47.1956 125.038 47.3358C125.038 47.3359 125.039 47.3359 125.039 47.336L125.859 47.5347L125.861 47.535C126.272 47.6322 126.538 47.7457 126.697 47.8736C126.844 47.9911 126.906 48.1227 126.906 48.2977C126.906 48.4967 126.806 48.6786 126.608 48.8186C126.407 48.9606 126.11 49.0545 125.748 49.0545C124.946 49.0545 124.5 48.7009 124.438 48.2541L124.411 48.0632H124.219H123.238ZM115.37 49.4174C115.37 49.9071 115.744 50.298 116.241 50.298C116.744 50.298 117.112 49.9061 117.112 49.4174C117.112 48.9287 116.744 48.5367 116.241 48.5367C115.744 48.5367 115.37 48.9277 115.37 49.4174Z" fill="url(#paint1_linear_225_54)"/>
<path d="M47.8272 22.3021H47.6059V22.5234V52.1278V52.3491H47.8272H67.857H68.0783V52.1278V50.5522V50.331H67.857H49.8656V37.7542H66.5768H66.798V37.5329V35.9573V35.7361H66.5768H49.8656V24.3202H67.6505H67.8718V24.099V22.5234V22.3021H67.6505H47.8272ZM69.4264 22.3021H68.9953L69.2466 22.6524L79.4781 36.9101L68.5041 51.9977L68.2485 52.3491H68.683H70.8305H70.9434L71.0097 52.2577L80.8657 38.6568L90.681 52.2573L90.7472 52.3491H90.8604H93.0492H93.4818L93.2286 51.9983L82.3345 36.908L103.564 6.1114L103.208 5.84924L90.232 22.3868L90.2276 22.3926L80.8681 35.1657L71.7124 22.3945L71.6462 22.3021H71.5326H69.4264ZM93.6126 24.099V24.3202H93.8339H103.979V52.1278V52.3491H104.2H106.017H106.238V52.1278V24.3202H116.424H116.645V24.099V22.5234V22.3021H116.424H93.8339H93.6126V22.5234V24.099ZM23.0273 22.3021H22.8061V22.5234V52.1278V52.3491H23.0273H24.8445H25.0651L25.0657 52.1285L25.1462 25.4736L43.4941 52.2529L43.4996 52.2606L56.4434 69.5259L56.8044 69.2703L25.4827 22.4004L25.417 22.3021H25.2988H23.0273ZM118.027 48.1207H117.805V48.342C117.805 48.9466 118.025 49.4611 118.416 49.8232C118.806 50.1837 119.349 50.3777 119.971 50.3777C120.63 50.3777 121.185 50.1786 121.576 49.7816C121.965 49.385 122.164 48.818 122.164 48.134V43.6156V43.3943H121.943H120.953H120.731V43.6156V48.1296C120.731 48.4514 120.65 48.6637 120.531 48.794C120.415 48.9212 120.233 49.0014 119.963 49.0014C119.726 49.0014 119.545 48.928 119.423 48.8167C119.303 48.7063 119.225 48.5449 119.22 48.3364L119.215 48.1207H118.999H118.027ZM123.238 48.0632H123.002L123.017 48.2981C123.056 48.9321 123.342 49.4594 123.816 49.824C124.287 50.1858 124.929 50.3777 125.673 50.3777C126.463 50.3777 127.132 50.1776 127.607 49.793C128.088 49.4042 128.351 48.8425 128.351 48.1694C128.351 47.6432 128.201 47.2083 127.851 46.867C127.511 46.535 127.003 46.3138 126.334 46.1575C126.334 46.1574 126.333 46.1573 126.333 46.1572L125.633 45.9852L125.63 45.9846C125.223 45.8892 124.97 45.784 124.821 45.6677C124.688 45.5635 124.634 45.4489 124.634 45.2884C124.634 45.0759 124.727 44.9028 124.902 44.7759C125.082 44.6447 125.358 44.5582 125.717 44.5582C126.387 44.5582 126.776 44.8786 126.846 45.3273L126.876 45.5141H127.065H128.028H128.262L128.249 45.281C128.184 44.0552 127.107 43.2394 125.73 43.2394C124.996 43.2394 124.362 43.4391 123.908 43.8098C123.45 44.1838 123.189 44.7206 123.189 45.3548C123.189 45.8685 123.334 46.301 123.657 46.6406C123.973 46.9743 124.44 47.1956 125.038 47.3358C125.038 47.3359 125.039 47.3359 125.039 47.336L125.859 47.5347L125.861 47.535C126.272 47.6322 126.538 47.7457 126.697 47.8736C126.844 47.9911 126.906 48.1227 126.906 48.2977C126.906 48.4967 126.806 48.6786 126.608 48.8186C126.407 48.9606 126.11 49.0545 125.748 49.0545C124.946 49.0545 124.5 48.7009 124.438 48.2541L124.411 48.0632H124.219H123.238ZM115.37 49.4174C115.37 49.9071 115.744 50.298 116.241 50.298C116.744 50.298 117.112 49.9061 117.112 49.4174C117.112 48.9287 116.744 48.5367 116.241 48.5367C115.744 48.5367 115.37 48.9277 115.37 49.4174Z" stroke="url(#paint2_linear_225_54)" stroke-width="0.44251"/>
<defs>
<linearGradient id="paint0_linear_225_54" x1="75.5786" y1="5.84924" x2="75.5786" y2="69.5259" gradientUnits="userSpaceOnUse">
<stop offset="0.599999" stop-color="white"/>
<stop offset="0.779999"/>
</linearGradient>
<linearGradient id="paint1_linear_225_54" x1="75.5786" y1="5.84924" x2="75.5786" y2="69.5259" gradientUnits="userSpaceOnUse">
<stop offset="0.599999" stop-color="white"/>
<stop offset="0.779999"/>
</linearGradient>
<linearGradient id="paint2_linear_225_54" x1="75.5786" y1="5.84924" x2="75.5786" y2="69.5259" gradientUnits="userSpaceOnUse">
<stop offset="0.599999" stop-color="white"/>
<stop offset="0.779999"/>
</linearGradient>
</defs>
</svg>
