<svg width="151" height="80" viewBox="0 0 151 80" fill="none" xmlns="http://www.w3.org/2000/svg">
<path d="M47.8272 22.3022H47.6059V22.5235V52.1279V52.3492H47.8272H67.857H68.0783V52.1279V50.5523V50.3311H67.857H49.8656V37.7543H66.5768H66.798V37.533V35.9574V35.7362H66.5768H49.8656V24.3203H67.6505H67.8718V24.0991V22.5235V22.3022H67.6505H47.8272ZM69.4264 22.3022H68.9953L69.2466 22.6525L79.4781 36.9102L68.5041 51.9978L68.2485 52.3492H68.683H70.8305H70.9434L71.0097 52.2578L80.8657 38.6569L90.681 52.2574L90.7472 52.3492H90.8604H93.0492H93.4818L93.2286 51.9984L82.3345 36.9081L103.564 6.11153L103.208 5.84937L90.232 22.3869L90.2276 22.3927L80.8681 35.1658L71.7124 22.3946L71.6462 22.3022H71.5326H69.4264ZM93.6126 24.0991V24.3203H93.8339H103.979V52.1279V52.3492H104.2H106.017H106.238V52.1279V24.3203H116.424H116.645V24.0991V22.5235V22.3022H116.424H93.8339H93.6126V22.5235V24.0991ZM23.0273 22.3022H22.8061V22.5235V52.1279V52.3492H23.0273H24.8445H25.0651L25.0657 52.1286L25.1462 25.4737L43.4941 52.253L43.4996 52.2607L56.4434 69.526L56.8044 69.2704L25.4827 22.4005L25.417 22.3022H25.2988H23.0273ZM118.027 48.1208H117.805V48.3421C117.805 48.9467 118.025 49.4612 118.416 49.8233C118.806 50.1838 119.349 50.3778 119.971 50.3778C120.63 50.3778 121.185 50.1787 121.576 49.7817C121.965 49.3851 122.164 48.8181 122.164 48.1341V43.6157V43.3944H121.943H120.953H120.731V43.6157V48.1297C120.731 48.4515 120.65 48.6638 120.531 48.7941C120.415 48.9213 120.233 49.0015 119.963 49.0015C119.726 49.0015 119.545 48.9281 119.423 48.8168C119.303 48.7064 119.225 48.545 119.22 48.3365L119.215 48.1208H118.999H118.027ZM123.238 48.0633H123.002L123.017 48.2982C123.056 48.9322 123.342 49.4595 123.816 49.8241C124.287 50.1859 124.929 50.3778 125.673 50.3778C126.463 50.3778 127.132 50.1777 127.607 49.7931C128.088 49.4043 128.351 48.8426 128.351 48.1695C128.351 47.6433 128.201 47.2084 127.851 46.8671C127.511 46.5351 127.003 46.3139 126.334 46.1576C126.334 46.1575 126.333 46.1574 126.333 46.1573L125.633 45.9853L125.63 45.9847C125.223 45.8893 124.97 45.7841 124.821 45.6678C124.688 45.5636 124.634 45.449 124.634 45.2885C124.634 45.076 124.727 44.9029 124.902 44.776C125.082 44.6448 125.358 44.5583 125.717 44.5583C126.387 44.5583 126.776 44.8787 126.846 45.3274L126.876 45.5142H127.065H128.028H128.262L128.249 45.2811C128.184 44.0553 127.107 43.2395 125.73 43.2395C124.996 43.2395 124.362 43.4392 123.908 43.8099C123.45 44.1839 123.189 44.7207 123.189 45.3549C123.189 45.8686 123.334 46.3011 123.657 46.6407C123.973 46.9744 124.44 47.1957 125.038 47.3359C125.038 47.336 125.039 47.336 125.039 47.3361L125.859 47.5348L125.861 47.5351C126.272 47.6323 126.538 47.7458 126.697 47.8737C126.844 47.9912 126.906 48.1228 126.906 48.2978C126.906 48.4968 126.806 48.6787 126.608 48.8187C126.407 48.9607 126.11 49.0546 125.748 49.0546C124.946 49.0546 124.5 48.701 124.438 48.2542L124.411 48.0633H124.219H123.238ZM115.37 49.4175C115.37 49.9072 115.744 50.2981 116.241 50.2981C116.744 50.2981 117.112 49.9062 117.112 49.4175C117.112 48.9288 116.744 48.5368 116.241 48.5368C115.744 48.5368 115.37 48.9278 115.37 49.4175Z" fill="url(#paint0_linear_1_267)"/>
<path d="M47.8272 22.3022H47.6059V22.5235V52.1279V52.3492H47.8272H67.857H68.0783V52.1279V50.5523V50.3311H67.857H49.8656V37.7543H66.5768H66.798V37.533V35.9574V35.7362H66.5768H49.8656V24.3203H67.6505H67.8718V24.0991V22.5235V22.3022H67.6505H47.8272ZM69.4264 22.3022H68.9953L69.2466 22.6525L79.4781 36.9102L68.5041 51.9978L68.2485 52.3492H68.683H70.8305H70.9434L71.0097 52.2578L80.8657 38.6569L90.681 52.2574L90.7472 52.3492H90.8604H93.0492H93.4818L93.2286 51.9984L82.3345 36.9081L103.564 6.11153L103.208 5.84937L90.232 22.3869L90.2276 22.3927L80.8681 35.1658L71.7124 22.3946L71.6462 22.3022H71.5326H69.4264ZM93.6126 24.0991V24.3203H93.8339H103.979V52.1279V52.3492H104.2H106.017H106.238V52.1279V24.3203H116.424H116.645V24.0991V22.5235V22.3022H116.424H93.8339H93.6126V22.5235V24.0991ZM23.0273 22.3022H22.8061V22.5235V52.1279V52.3492H23.0273H24.8445H25.0651L25.0657 52.1286L25.1462 25.4737L43.4941 52.253L43.4996 52.2607L56.4434 69.526L56.8044 69.2704L25.4827 22.4005L25.417 22.3022H25.2988H23.0273ZM118.027 48.1208H117.805V48.3421C117.805 48.9467 118.025 49.4612 118.416 49.8233C118.806 50.1838 119.349 50.3778 119.971 50.3778C120.63 50.3778 121.185 50.1787 121.576 49.7817C121.965 49.3851 122.164 48.8181 122.164 48.1341V43.6157V43.3944H121.943H120.953H120.731V43.6157V48.1297C120.731 48.4515 120.65 48.6638 120.531 48.7941C120.415 48.9213 120.233 49.0015 119.963 49.0015C119.726 49.0015 119.545 48.9281 119.423 48.8168C119.303 48.7064 119.225 48.545 119.22 48.3365L119.215 48.1208H118.999H118.027ZM123.238 48.0633H123.002L123.017 48.2982C123.056 48.9322 123.342 49.4595 123.816 49.8241C124.287 50.1859 124.929 50.3778 125.673 50.3778C126.463 50.3778 127.132 50.1777 127.607 49.7931C128.088 49.4043 128.351 48.8426 128.351 48.1695C128.351 47.6433 128.201 47.2084 127.851 46.8671C127.511 46.5351 127.003 46.3139 126.334 46.1576C126.334 46.1575 126.333 46.1574 126.333 46.1573L125.633 45.9853L125.63 45.9847C125.223 45.8893 124.97 45.7841 124.821 45.6678C124.688 45.5636 124.634 45.449 124.634 45.2885C124.634 45.076 124.727 44.9029 124.902 44.776C125.082 44.6448 125.358 44.5583 125.717 44.5583C126.387 44.5583 126.776 44.8787 126.846 45.3274L126.876 45.5142H127.065H128.028H128.262L128.249 45.2811C128.184 44.0553 127.107 43.2395 125.73 43.2395C124.996 43.2395 124.362 43.4392 123.908 43.8099C123.45 44.1839 123.189 44.7207 123.189 45.3549C123.189 45.8686 123.334 46.3011 123.657 46.6407C123.973 46.9744 124.44 47.1957 125.038 47.3359C125.038 47.336 125.039 47.336 125.039 47.3361L125.859 47.5348L125.861 47.5351C126.272 47.6323 126.538 47.7458 126.697 47.8737C126.844 47.9912 126.906 48.1228 126.906 48.2978C126.906 48.4968 126.806 48.6787 126.608 48.8187C126.407 48.9607 126.11 49.0546 125.748 49.0546C124.946 49.0546 124.5 48.701 124.438 48.2542L124.411 48.0633H124.219H123.238ZM115.37 49.4175C115.37 49.9072 115.744 50.2981 116.241 50.2981C116.744 50.2981 117.112 49.9062 117.112 49.4175C117.112 48.9288 116.744 48.5368 116.241 48.5368C115.744 48.5368 115.37 48.9278 115.37 49.4175Z" fill="url(#paint1_linear_1_267)"/>
<path d="M47.8272 22.3022H47.6059V22.5235V52.1279V52.3492H47.8272H67.857H68.0783V52.1279V50.5523V50.3311H67.857H49.8656V37.7543H66.5768H66.798V37.533V35.9574V35.7362H66.5768H49.8656V24.3203H67.6505H67.8718V24.0991V22.5235V22.3022H67.6505H47.8272ZM69.4264 22.3022H68.9953L69.2466 22.6525L79.4781 36.9102L68.5041 51.9978L68.2485 52.3492H68.683H70.8305H70.9434L71.0097 52.2578L80.8657 38.6569L90.681 52.2574L90.7472 52.3492H90.8604H93.0492H93.4818L93.2286 51.9984L82.3345 36.9081L103.564 6.11153L103.208 5.84937L90.232 22.3869L90.2276 22.3927L80.8681 35.1658L71.7124 22.3946L71.6462 22.3022H71.5326H69.4264ZM93.6126 24.0991V24.3203H93.8339H103.979V52.1279V52.3492H104.2H106.017H106.238V52.1279V24.3203H116.424H116.645V24.0991V22.5235V22.3022H116.424H93.8339H93.6126V22.5235V24.0991ZM23.0273 22.3022H22.8061V22.5235V52.1279V52.3492H23.0273H24.8445H25.0651L25.0657 52.1286L25.1462 25.4737L43.4941 52.253L43.4996 52.2607L56.4434 69.526L56.8044 69.2704L25.4827 22.4005L25.417 22.3022H25.2988H23.0273ZM118.027 48.1208H117.805V48.3421C117.805 48.9467 118.025 49.4612 118.416 49.8233C118.806 50.1838 119.349 50.3778 119.971 50.3778C120.63 50.3778 121.185 50.1787 121.576 49.7817C121.965 49.3851 122.164 48.8181 122.164 48.1341V43.6157V43.3944H121.943H120.953H120.731V43.6157V48.1297C120.731 48.4515 120.65 48.6638 120.531 48.7941C120.415 48.9213 120.233 49.0015 119.963 49.0015C119.726 49.0015 119.545 48.9281 119.423 48.8168C119.303 48.7064 119.225 48.545 119.22 48.3365L119.215 48.1208H118.999H118.027ZM123.238 48.0633H123.002L123.017 48.2982C123.056 48.9322 123.342 49.4595 123.816 49.8241C124.287 50.1859 124.929 50.3778 125.673 50.3778C126.463 50.3778 127.132 50.1777 127.607 49.7931C128.088 49.4043 128.351 48.8426 128.351 48.1695C128.351 47.6433 128.201 47.2084 127.851 46.8671C127.511 46.5351 127.003 46.3139 126.334 46.1576C126.334 46.1575 126.333 46.1574 126.333 46.1573L125.633 45.9853L125.63 45.9847C125.223 45.8893 124.97 45.7841 124.821 45.6678C124.688 45.5636 124.634 45.449 124.634 45.2885C124.634 45.076 124.727 44.9029 124.902 44.776C125.082 44.6448 125.358 44.5583 125.717 44.5583C126.387 44.5583 126.776 44.8787 126.846 45.3274L126.876 45.5142H127.065H128.028H128.262L128.249 45.2811C128.184 44.0553 127.107 43.2395 125.73 43.2395C124.996 43.2395 124.362 43.4392 123.908 43.8099C123.45 44.1839 123.189 44.7207 123.189 45.3549C123.189 45.8686 123.334 46.3011 123.657 46.6407C123.973 46.9744 124.44 47.1957 125.038 47.3359C125.038 47.336 125.039 47.336 125.039 47.3361L125.859 47.5348L125.861 47.5351C126.272 47.6323 126.538 47.7458 126.697 47.8737C126.844 47.9912 126.906 48.1228 126.906 48.2978C126.906 48.4968 126.806 48.6787 126.608 48.8187C126.407 48.9607 126.11 49.0546 125.748 49.0546C124.946 49.0546 124.5 48.701 124.438 48.2542L124.411 48.0633H124.219H123.238ZM115.37 49.4175C115.37 49.9072 115.744 50.2981 116.241 50.2981C116.744 50.2981 117.112 49.9062 117.112 49.4175C117.112 48.9288 116.744 48.5368 116.241 48.5368C115.744 48.5368 115.37 48.9278 115.37 49.4175Z" stroke="url(#paint2_linear_1_267)" stroke-width="0.44251"/>
<defs>
<linearGradient id="paint0_linear_1_267" x1="75.5787" y1="5.98595" x2="75.5787" y2="77.5562" gradientUnits="userSpaceOnUse">
<stop stop-color="#1FBCCB" stop-opacity="0.8"/>
<stop offset="1" stop-color="#1FBCCB"/>
</linearGradient>
<linearGradient id="paint1_linear_1_267" x1="75.5787" y1="5.98595" x2="75.5787" y2="69.3933" gradientUnits="userSpaceOnUse">
<stop stop-color="#1FBCCB"/>
<stop offset="1" stop-color="#1FBCCB" stop-opacity="0.08"/>
</linearGradient>
<linearGradient id="paint2_linear_1_267" x1="75.5787" y1="5.98595" x2="75.5787" y2="77.5562" gradientUnits="userSpaceOnUse">
<stop stop-color="#1C94A0"/>
<stop offset="1" stop-color="#1FBCCB"/>
</linearGradient>
</defs>
</svg>
