<svg width="71" height="80" viewBox="0 0 71 80" fill="none" xmlns="http://www.w3.org/2000/svg">
<path d="M35.4323 79.8516C34.3319 79.8516 33.3049 79.5581 32.3512 79.0446L22.5945 73.2492C21.1273 72.4423 21.8609 72.1488 22.3011 72.0021C24.2818 71.3419 24.6486 71.1952 26.7026 70.0214C26.9227 69.8747 27.2161 69.9481 27.4362 70.0948L34.9188 74.5697C35.2122 74.7164 35.579 74.7164 35.7991 74.5697L65.0693 57.6237C65.3627 57.477 65.5094 57.1835 65.5094 56.8168V22.9981C65.5094 22.6313 65.3627 22.3379 65.0693 22.1912L35.7991 5.31855C35.5057 5.17183 35.1389 5.17183 34.9188 5.31855L5.64862 22.1912C5.35519 22.3379 5.20847 22.7047 5.20847 22.9981V56.8168C5.20847 57.1102 5.35519 57.477 5.64862 57.6237L13.6447 62.2453C17.9729 64.4461 20.6872 61.8785 20.6872 59.311V25.9325C20.6872 25.4923 21.054 25.0522 21.5675 25.0522H25.3088C25.7489 25.0522 26.1891 25.419 26.1891 25.9325V59.311C26.1891 65.1063 23.0347 68.4809 17.5328 68.4809C15.8455 68.4809 14.5251 68.4809 10.7838 66.6469L3.08106 62.2453C1.17374 61.1449 0 59.0909 0 56.8901V23.0715C0 20.8707 1.17374 18.8167 3.08106 17.7163L32.3512 0.770272C34.1852 -0.256757 36.6794 -0.256757 38.5134 0.770272L67.7835 17.7163C69.6909 18.8167 70.8646 20.8707 70.8646 23.0715V56.8901C70.8646 59.0909 69.6909 61.1449 67.7835 62.2453L38.5134 79.1913C37.5597 79.6315 36.4593 79.8516 35.4323 79.8516ZM44.4554 56.5967C31.6176 56.5967 28.9767 50.7279 28.9767 45.7395C28.9767 45.2993 29.3435 44.8592 29.857 44.8592H33.6717C34.1119 44.8592 34.4786 45.1526 34.4786 45.5928C35.0655 49.4808 36.7528 51.3882 44.5288 51.3882C50.6909 51.3882 53.3319 49.9943 53.3319 46.6932C53.3319 44.7858 52.5983 43.392 42.9883 42.4383C34.9922 41.6314 30.0038 39.8708 30.0038 33.4885C30.0038 27.5464 34.9922 24.0252 43.3551 24.0252C52.745 24.0252 57.3666 27.253 57.9535 34.2955C57.9535 34.5155 57.8801 34.7356 57.7334 34.9557C57.5867 35.1024 57.3666 35.2491 57.1465 35.2491H53.3319C52.9651 35.2491 52.5983 34.9557 52.5249 34.5889C51.6446 30.5541 49.3705 29.2337 43.3551 29.2337C36.606 29.2337 35.7991 31.5812 35.7991 33.3418C35.7991 35.4692 36.7528 36.1294 45.8493 37.3032C54.8724 38.4769 59.1272 40.1642 59.1272 46.4731C59.0538 52.9287 53.772 56.5967 44.4554 56.5967Z" fill="url(#paint0_linear_226_60)"/>
<defs>
<linearGradient id="paint0_linear_226_60" x1="35.4323" y1="-2.5e-07" x2="35.4323" y2="90.1315" gradientUnits="userSpaceOnUse">
<stop offset="0.499666" stop-color="white"/>
<stop offset="0.729666" stop-color="#353535"/>
</linearGradient>
</defs>
</svg>
