<svg width="67" height="62" viewBox="0 0 67 62" fill="none" xmlns="http://www.w3.org/2000/svg">
<path d="M41.3463 38.0895L40.0612 40.3689C39.674 41.0555 38.9573 41.4787 38.1815 41.4787H28.3364C27.5606 41.4787 26.8439 41.0555 26.4568 40.3689L25.1715 38.0895H41.3463ZM44.9442 31.7086L42.6781 35.7274H23.8397L21.5737 31.7086H44.9442ZM42.7614 25.4688L44.9478 29.3466H21.5701L23.7565 25.4688H42.7614ZM38.1815 19.5701C38.9573 19.5701 39.674 19.9932 40.0612 20.6799L41.4296 23.1067H25.0884L26.4568 20.6799C26.8439 19.9932 27.5606 19.5701 28.3364 19.5701H38.1815Z" fill="url(#paint0_linear_227_165)"/>
<path d="M14.0079 18.5124C12.9173 13.1109 12.6833 8.96809 13.3882 5.9598C13.8075 4.17064 14.574 2.71107 15.7396 1.65802C16.9701 0.546263 18.5259 0.000725508 20.2739 0.000725508C23.1577 0.000725508 26.1893 1.34392 29.4291 3.89563C30.7506 4.93642 32.1221 6.19094 33.5464 7.65988C33.6598 7.5108 33.7879 7.37019 33.9307 7.24024C37.9576 3.57493 41.3479 1.29762 44.2476 0.419564C45.9718 -0.10253 47.5906 -0.15227 49.0648 0.35444C50.6208 0.889306 51.8607 1.99495 52.7355 3.54361C54.1791 6.09945 54.5598 9.45785 54.0216 13.6046C53.8022 15.2949 53.4272 17.136 52.8972 19.131C53.0972 19.1556 53.2976 19.2009 53.496 19.2681C58.6052 20.9974 62.2231 22.8572 64.4135 24.9825C65.7167 26.247 66.5677 27.6548 66.8753 29.2131C67.2 30.8579 66.8834 32.5077 66.0096 34.0552C64.5687 36.6074 61.9192 38.6202 58.1446 40.2145C56.6289 40.8547 54.9141 41.4345 52.9982 41.9559C53.0856 42.1576 53.1534 42.3717 53.1988 42.5963C54.2894 47.9977 54.5234 52.1406 53.8184 55.1489C53.3992 56.938 52.6327 58.3976 51.4671 59.4507C50.2366 60.5624 48.6808 61.108 46.9327 61.108C44.0489 61.108 41.0173 59.7648 37.7776 57.2131C36.442 56.1612 35.0554 54.891 33.6148 53.4018C33.4665 53.6387 33.2845 53.8588 33.0693 54.0547C29.0424 57.72 25.6521 59.9973 22.7524 60.8754C21.0282 61.3975 19.4094 61.4472 17.9352 60.9405C16.3792 60.4056 15.1393 59.3 14.2645 57.7513C12.8209 55.1955 12.4402 51.8371 12.9784 47.6903C13.2057 45.939 13.6002 44.0256 14.1608 41.947C13.9417 41.9243 13.7216 41.877 13.504 41.8034C8.39477 40.074 4.7769 38.2143 2.58655 36.0889C1.28334 34.8244 0.432336 33.4166 0.124703 31.8583C-0.200004 30.2135 0.116611 28.5637 0.990349 27.0162C2.43132 24.4641 5.08084 22.4512 8.85543 20.8569C10.4162 20.1976 12.1883 19.6024 14.1737 19.069C14.1029 18.8922 14.0471 18.7062 14.0079 18.5124Z" fill="url(#paint1_linear_227_165)"/>
<path d="M49.6342 43.1273C50.1422 43.0354 50.629 43.368 50.7424 43.8784L50.7487 43.9086L50.8028 44.1958C52.5589 53.626 51.3219 58.341 47.0917 58.341C42.9529 58.341 37.6843 54.3177 31.2858 46.2709C31.1445 46.0931 31.0682 45.8706 31.0701 45.6415C31.0747 45.108 31.4939 44.6773 32.0126 44.6657L32.0426 44.6655L32.3795 44.668C35.072 44.6829 37.6896 44.587 40.2321 44.3803C43.2334 44.1363 46.3674 43.7187 49.6342 43.1273ZM20.5831 35.9991L20.5993 36.0271L20.7684 36.3284C22.1233 38.7343 23.5349 41.0178 25.0032 43.1789C26.7324 45.724 28.677 48.3004 30.8369 50.9083C31.1711 51.3118 31.1329 51.9106 30.756 52.2667L30.7314 52.2891L30.5141 52.4802C23.3676 58.7346 18.7227 59.9832 16.5793 56.226C14.4812 52.5482 15.2419 45.861 18.8613 36.1644C18.9408 35.9513 19.0903 35.773 19.2842 35.66C19.7373 35.3958 20.3119 35.5484 20.5831 35.9991ZM53.2606 22.0841L53.2899 22.0939L53.5589 22.1887C62.3801 25.3229 65.7315 28.7673 63.6131 32.5218C61.5412 36.1938 55.5181 38.8674 45.5437 40.5425C45.3213 40.5798 45.0931 40.5364 44.8988 40.4197C44.4398 40.1441 44.2864 39.5406 44.5563 39.0718C45.9849 36.5897 47.2716 34.12 48.4163 31.6627C49.7145 28.8758 50.9329 25.8844 52.0713 22.6886C52.2439 22.2041 52.751 21.9409 53.2313 22.0754L53.2606 22.0841ZM22.1012 20.5061C22.5602 20.7817 22.7135 21.3851 22.4437 21.854C21.0151 24.3361 19.7284 26.8058 18.5837 29.2631C17.2854 32.05 16.0671 35.0414 14.9286 38.2372C14.7525 38.7316 14.2282 38.9955 13.7393 38.8417L13.7101 38.8319L13.4411 38.737C4.6199 35.6029 1.26851 32.1585 3.3869 28.404C5.45874 24.7319 11.4819 22.0584 21.4563 20.3833C21.6787 20.346 21.9069 20.3894 22.1012 20.5061ZM50.4207 5.06907C52.5187 8.74683 51.7581 15.434 48.1387 25.1306C48.0592 25.3437 47.9097 25.522 47.7158 25.635C47.2626 25.8992 46.6881 25.7467 46.4169 25.2959L46.4007 25.268L46.2316 24.9666C44.8767 22.5607 43.4651 20.2772 41.9968 18.1161C40.2676 15.5711 38.323 12.9946 36.1631 10.3867C35.8289 9.98328 35.8671 9.38444 36.244 9.0283L36.2685 9.0059L36.4859 8.81484C43.6324 2.56043 48.2773 1.31184 50.4207 5.06907ZM20.2698 2.83093C24.4086 2.83093 29.6772 6.8543 36.0757 14.901C36.217 15.0788 36.2933 15.3014 36.2914 15.5304C36.2868 16.064 35.8676 16.4947 35.3489 16.5062L35.3189 16.5064L34.982 16.504C32.2895 16.4891 29.6719 16.585 27.1294 16.7917C24.1281 17.0356 20.9941 17.4533 17.7273 18.0446C17.2193 18.1366 16.7325 17.8039 16.6191 17.2936L16.6128 17.2633L16.5587 16.9761C14.8026 7.546 16.0396 2.83093 20.2698 2.83093Z" fill="black"/>
<path d="M29.1278 19.6931H37.3919C38.6004 19.6931 39.7167 20.3534 40.3183 21.424L44.4677 28.8089C45.0646 29.8713 45.0646 31.1774 44.4677 32.2398L40.3183 39.6247C39.7167 40.6954 38.6004 41.3556 37.3919 41.3556H29.1278C27.9193 41.3556 26.803 40.6954 26.2014 39.6247L22.052 32.2398C21.4551 31.1774 21.4551 29.8713 22.052 28.8089L26.2014 21.424C26.803 20.3534 27.9193 19.6931 29.1278 19.6931ZM36.1323 21.9221C37.3415 21.9221 38.4583 22.583 39.0596 23.6545L41.9531 28.8105C42.5489 29.8721 42.5489 31.1766 41.9531 32.2382L39.0596 37.3942C38.4583 38.4657 37.3415 39.1267 36.1323 39.1267H30.3874C29.1781 39.1267 28.0614 38.4657 27.4601 37.3942L24.5665 32.2382C23.9708 31.1766 23.9708 29.8721 24.5665 28.8105L27.4601 23.6545C28.0614 22.583 29.1781 21.9221 30.3874 21.9221H36.1323ZM34.7748 24.36H31.7449C30.5369 24.36 29.4211 25.0195 28.8193 26.0893L27.2903 28.8074C26.6923 29.8706 26.6923 31.1782 27.2903 32.2413L28.8193 34.9594C29.4211 36.0292 30.5369 36.6888 31.7449 36.6888H34.7748C35.9828 36.6888 37.0986 36.0292 37.7004 34.9594L39.2294 32.2413C39.8274 31.1782 39.8274 29.8706 39.2294 28.8074L37.7004 26.0893C37.0986 25.0195 35.9828 24.36 34.7748 24.36ZM33.4676 26.6934C34.6747 26.6934 35.7898 27.352 36.3919 28.4205L36.6087 28.8052C37.2084 29.8695 37.2084 31.1793 36.6087 32.2435L36.3919 32.6282C35.7898 33.6967 34.6747 34.3553 33.4676 34.3553H33.0521C31.845 34.3553 30.7299 33.6967 30.1278 32.6282L29.911 32.2435C29.3113 31.1793 29.3113 29.8695 29.911 28.8052L30.1278 28.4205C30.7299 27.352 31.845 26.6934 33.0521 26.6934H33.4676ZM33.2604 28.992C32.7232 28.992 32.2277 29.284 31.9595 29.7582C31.6913 30.2322 31.6913 30.8165 31.9595 31.2905C32.2277 31.7647 32.7232 32.0567 33.2593 32.0567C33.7965 32.0567 34.292 31.7647 34.5602 31.2905C34.8284 30.8165 34.8284 30.2322 34.5602 29.7582C34.292 29.284 33.7965 28.992 33.2604 28.992ZM21.0881 30.5244H23.7893Z" fill="url(#paint2_linear_227_165)"/>
<defs>
<linearGradient id="paint0_linear_227_165" x1="33.259" y1="19.5701" x2="33.259" y2="41.4787" gradientUnits="userSpaceOnUse">
<stop offset="0.684666" stop-color="white"/>
<stop offset="1" stop-color="#3F3F3F"/>
</linearGradient>
<linearGradient id="paint1_linear_227_165" x1="33.5" y1="0" x2="33.5" y2="61.295" gradientUnits="userSpaceOnUse">
<stop offset="0.239666" stop-color="white"/>
<stop offset="1" stop-color="#2A2A2A"/>
</linearGradient>
<linearGradient id="paint2_linear_227_165" x1="33.0018" y1="19.6931" x2="33.0018" y2="41.3556" gradientUnits="userSpaceOnUse">
<stop offset="0.789666" stop-color="white"/>
<stop offset="1"/>
</linearGradient>
</defs>
</svg>
