<svg width="70" height="69" viewBox="0 0 70 69" fill="none" xmlns="http://www.w3.org/2000/svg">
<path d="M48.5026 48.189C51.0858 47.9114 53.0455 45.5992 52.9564 42.8243C52.8675 40.0496 50.6403 37.8297 47.968 37.8297H47.79C45.0283 37.9223 42.8906 40.327 42.9797 43.1942C43.0689 44.5817 43.6032 45.784 44.4049 46.6165C41.3763 52.8137 36.7442 57.3457 29.7962 61.1379C25.075 63.7278 20.1759 64.6528 15.2767 64.0054C11.2681 63.4504 8.15035 61.6007 6.19035 58.5481C3.34004 54.016 3.07289 49.1137 5.47804 44.2117C7.17062 40.6969 9.84265 38.1071 11.5352 36.8122C11.1789 35.6098 10.6444 33.575 10.3772 32.0953C-2.53914 41.807 -1.20285 54.941 2.7166 61.1379C5.65605 65.7628 11.6244 68.6301 18.2161 68.6301C19.9976 68.6301 21.779 68.445 23.5607 67.9827C34.9628 65.6703 43.6034 58.6407 48.5026 48.189ZM64.1804 36.7199C57.4104 28.4879 47.4337 23.9558 36.0317 23.9558H34.6065C33.8048 22.291 32.1122 21.1809 30.2416 21.1809H30.0634C27.3022 21.2734 25.1644 23.6782 25.2533 26.5457C25.3425 29.3203 27.5693 31.5402 30.2416 31.5402H30.4196C32.3794 31.4477 34.0719 30.1528 34.7845 28.3953H36.388C43.158 28.3953 49.5715 30.4301 55.3618 34.4074C59.8155 37.4598 63.0224 41.4371 64.8039 46.2465C66.3181 50.1313 66.229 53.9235 64.6256 57.1609C62.1316 62.0629 57.9449 64.7453 52.4221 64.7453C48.8589 64.7453 45.474 63.6352 43.6923 62.8028C42.7126 63.7278 40.9309 65.2075 39.6837 66.1328C43.5143 67.9825 47.4337 69 51.1749 69C59.7264 69 66.051 64.0977 68.4562 59.1957C71.0393 53.8309 70.861 44.5817 64.1804 36.7199ZM18.9287 49.7611C19.0178 52.536 21.2447 54.7556 23.917 54.7556H24.0953C26.8568 54.6633 28.9945 52.2583 28.9053 49.3911C28.8165 46.6162 26.5893 44.3966 23.917 44.3966H23.739C23.5607 44.3966 23.2933 44.3966 23.1156 44.4888C19.4633 38.1994 17.949 31.3551 18.4835 23.9555C18.8396 18.4059 20.6213 13.5962 23.739 9.6189C26.3222 6.19664 31.3105 4.53179 34.6957 4.43951C44.1377 4.2544 48.146 16.4634 48.4135 21.3657C49.5715 21.6431 51.5312 22.2907 52.8675 22.7532C51.7983 7.7695 42.8906 0 34.3394 0C26.3222 0 18.9287 6.0121 15.989 14.8914C11.8915 26.7305 14.5638 38.1071 19.5521 47.079C19.107 47.7263 18.8396 48.7435 18.9287 49.7611Z" fill="url(#paint0_linear_224_22)"/>
<defs>
<linearGradient id="paint0_linear_224_22" x1="35" y1="0" x2="35" y2="69" gradientUnits="userSpaceOnUse">
<stop offset="0.509666" stop-color="white"/>
<stop offset="1" stop-color="#404040"/>
</linearGradient>
</defs>
</svg>
