<svg width="68" height="65" viewBox="0 0 68 65" fill="none" xmlns="http://www.w3.org/2000/svg">
<path d="M61.3594 0H6.64062C2.97311 0 0 2.84194 0 6.34766V58.6523C0 62.1581 2.97311 65 6.64062 65H61.3594C65.0269 65 68 62.1581 68 58.6523V6.34766C68 2.84194 65.0269 0 61.3594 0Z" fill="url(#paint0_linear_226_86)"/>
<path d="M61.3594 0H6.64062C2.97311 0 0 2.84194 0 6.34766V58.6523C0 62.1581 2.97311 65 6.64062 65H61.3594C65.0269 65 68 62.1581 68 58.6523V6.34766C68 2.84194 65.0269 0 61.3594 0Z" fill="url(#paint1_linear_226_86)"/>
<path fill-rule="evenodd" clip-rule="evenodd" d="M42.0935 51.7238V58.0791C43.1743 58.6088 44.4526 59.0059 45.9284 59.2707C47.4042 59.5356 48.9596 59.668 50.5948 59.668C52.1884 59.668 53.7022 59.5224 55.1364 59.231C56.5707 58.9398 57.8283 58.4598 58.9091 57.7911C59.9899 57.1226 60.8457 56.2486 61.4761 55.1695C62.1066 54.0904 62.4219 52.7565 62.4219 51.1677C62.4219 50.0157 62.2418 49.0062 61.8815 48.139C61.5211 47.2718 61.0016 46.5005 60.3225 45.8253C59.6436 45.15 58.8294 44.5442 57.8802 44.0079C56.931 43.4717 55.8605 42.9653 54.6688 42.4887C53.7958 42.1444 53.0129 41.8101 52.32 41.4857C51.6271 41.1612 51.0382 40.8303 50.5532 40.4927C50.0682 40.155 49.6941 39.7975 49.4308 39.4202C49.1676 39.0428 49.0358 38.6158 49.0358 38.1391C49.0358 37.7023 49.1536 37.3083 49.3893 36.9575C49.6249 36.6066 49.9574 36.3054 50.3869 36.0538C50.8166 35.8023 51.3431 35.6069 51.9666 35.4679C52.5903 35.3289 53.283 35.2595 54.0453 35.2595C54.5995 35.2595 55.1849 35.2992 55.8016 35.3785C56.4182 35.458 57.0383 35.5805 57.662 35.7459C58.2856 35.9115 58.8917 36.1201 59.4807 36.3716C60.0696 36.6232 60.6135 36.9144 61.1123 37.2455V31.3071C60.1008 30.9364 58.9957 30.6617 57.7971 30.483C56.5984 30.3042 55.223 30.2148 53.6711 30.2148C52.0913 30.2148 50.5948 30.3771 49.1814 30.7015C47.768 31.0258 46.5244 31.5322 45.4503 32.2207C44.3764 32.9093 43.5277 33.7864 42.9041 34.8523C42.2806 35.9181 41.9688 37.1924 41.9688 38.6754C41.9688 40.5688 42.5404 42.1841 43.6836 43.5214C44.8267 44.8586 46.5623 45.9907 48.8904 46.9176C49.805 47.2751 50.6572 47.6258 51.447 47.9701C52.2369 48.3144 52.9194 48.6719 53.4944 49.0426C54.0694 49.4133 54.5232 49.8172 54.8559 50.2541C55.1885 50.691 55.3548 51.1875 55.3548 51.7437C55.3548 52.1541 55.2508 52.5347 55.0429 52.8856C54.8351 53.2365 54.5198 53.541 54.0972 53.7992C53.6746 54.0574 53.148 54.2593 52.5175 54.4049C51.8869 54.5506 51.1491 54.6234 50.3038 54.6234C48.8626 54.6234 47.4354 54.3818 46.0219 53.8985C44.6085 53.4153 43.299 52.6904 42.0935 51.7238ZM30.9161 36.0651H39.4453V30.8496H15.6719V36.0651H24.1594V59.2871H30.9161V36.0651Z" fill="#020E0F"/>
<defs>
<linearGradient id="paint0_linear_226_86" x1="34" y1="0" x2="34" y2="65" gradientUnits="userSpaceOnUse">
<stop offset="0.709999" stop-color="white"/>
<stop offset="1" stop-color="#2A2A2A"/>
</linearGradient>
<linearGradient id="paint1_linear_226_86" x1="34" y1="0" x2="34" y2="65" gradientUnits="userSpaceOnUse">
<stop offset="0.709999" stop-color="white"/>
<stop offset="1" stop-color="#2A2A2A"/>
</linearGradient>
</defs>
</svg>
