<svg width="73" height="65" viewBox="0 0 73 65" fill="none" xmlns="http://www.w3.org/2000/svg">
<path d="M28.4045 0.164938C27.2891 0.608601 26.0962 1.92185 25.6004 3.25284C25.4145 3.74974 25.3215 3.82073 25.0427 3.732C23.0751 3.09312 20.0077 3.23509 17.9007 4.05143L16.7852 4.4951L16.181 3.6965C15.329 2.56072 14.3684 2.08157 13.191 2.18805C12.8812 2.22354 11.9051 3.27059 11.6418 3.87397C11.0376 5.18721 10.9136 7.06835 11.3009 8.71878C11.4559 9.39315 11.4404 9.49963 11.0841 10.0498C10.7277 10.5644 10.4953 11.0968 9.58129 13.4749C9.31792 14.1315 9.30243 14.2557 9.17849 16.5805C9.03906 19.3312 9.47285 21.3011 10.8207 24.0341C11.146 24.6729 11.5178 25.6845 11.6728 26.2879C11.8277 26.909 12.0136 27.4059 12.0756 27.4059C12.153 27.4059 12.3234 27.6721 12.4474 27.9738C12.6643 28.4884 12.6643 28.5239 12.4474 28.2222C12.3234 28.027 12.215 27.7963 12.215 27.6898C12.215 27.6011 12.1685 27.5656 12.122 27.6189C12.0291 27.7431 12.6333 29.2693 13.0516 29.9259C13.3304 30.3696 13.7487 30.4583 13.5164 30.0324C13.4544 29.9082 13.4854 29.8904 13.5938 29.9614C13.7332 30.0679 13.7332 30.1566 13.6093 30.3341C13.3924 30.6358 13.5628 31.0085 13.8572 30.8842C13.9656 30.831 14.0276 30.8842 13.9811 31.0085C13.8882 31.3279 14.6318 32.091 14.9107 31.9668C15.0656 31.8958 15.1121 31.949 15.0501 32.1265C14.9571 32.4282 15.4529 32.9428 15.7473 32.8186C15.8557 32.7654 15.9177 32.8009 15.8712 32.8896C15.8247 32.9606 16.0881 33.138 16.4444 33.2623C17.9007 33.7769 18.7528 33.7592 19.8682 33.1913L20.7513 32.7476L20.7048 33.5817L20.6583 34.4158L19.6513 34.5578C18.4894 34.6997 17.1106 34.3093 15.5768 33.3865C14.26 32.5702 13.0206 31.0439 12.4474 29.4823C12.277 29.0208 12.215 28.9676 12.1375 29.2338C11.9826 29.642 12.8502 31.2569 13.8572 32.4637C14.7248 33.5107 15.8402 34.2383 17.0486 34.5223C18.3655 34.8417 18.381 34.8772 18.226 35.9597C18.0091 37.4682 17.2345 41.7629 17.1571 41.8516C17.0486 41.9758 15.3135 42.1533 15.174 42.0646C15.0656 41.9758 15.5304 39.1364 16.1501 36.0485C16.3979 34.8595 16.212 34.1851 15.9487 35.3209C15.6543 36.6519 15.6388 36.7228 15.7163 35.9243C15.7782 35.3564 15.7473 35.1789 15.6233 35.3209C15.5304 35.4273 15.4374 35.6581 15.4064 35.8533C15.3599 36.0307 15.236 36.7051 15.0966 37.344C14.9726 37.9829 14.7867 39.0476 14.6938 39.7398C14.4459 41.6032 14.3994 41.8161 14.322 41.9226C14.1206 42.1355 12.3544 41.5499 11.208 40.8933C9.65875 40.006 8.71372 39.0831 7.78418 37.5569C6.5293 35.4983 5.77017 33.2623 5.41385 30.5116C5.13498 28.3287 5.49131 23.6969 6.1265 21.5673C6.25043 21.1236 6.37437 20.6622 6.38987 20.5735C6.45184 20.1831 8.04755 16.5095 8.48133 15.7819C9.53482 13.9895 9.48834 13.7056 8.41937 15.427C7.52081 16.8644 6.48282 19.2425 5.95608 21.1059C5.19695 23.7324 4.93358 26.1282 4.91809 30.5825C4.91809 32.7831 4.98006 35.1966 5.07301 35.9243C5.35188 38.3378 5.42934 38.8524 5.55328 39.3848C5.63074 39.6688 5.72369 40.2012 5.77017 40.5561L5.86313 41.1772L4.87161 41.5854C3.53927 42.1178 2.70268 42.9696 2.37734 44.0877C2.23791 44.5668 2.16045 45.046 2.20693 45.1347C2.2689 45.2234 2.34636 46.5544 2.39284 48.0984L2.48579 50.9023L1.99003 50.4232C1.37034 49.8198 0.766137 49.8021 0.285874 50.3877C-0.0549578 50.8136 -0.0704502 50.8846 0.130951 51.5057C0.45629 52.535 1.07598 53.5821 2.03651 54.7179L2.93507 55.7649L2.96605 59.0125L2.99704 62.2601L3.61673 62.6683C4.77866 63.4314 7.39687 64.372 8.86864 64.5849C13.0826 65.1528 18.1486 65.1351 19.3415 64.5495C19.6203 64.4252 19.5584 64.443 20.3795 64.1768C20.7358 64.0525 21.5259 63.7154 22.1301 63.4137L23.2301 62.8813L23.6329 63.254C23.8498 63.4492 24.2681 63.6089 24.5624 63.6089C25.4455 63.6089 27.3975 62.5796 28.0947 61.7632C28.8538 60.8759 29.9847 58.4624 30.1242 57.4153C30.1861 56.9894 30.2946 56.7055 30.403 56.741C30.496 56.7765 30.5425 57.0427 30.496 57.4153C30.3101 58.9948 30.434 59.8289 31.0382 60.7517C31.5185 61.5148 31.7354 61.6923 32.4325 61.9407C34.555 62.6328 35.9803 60.9469 37.3281 56.1198C37.7619 54.5404 37.9013 54.221 38.1647 54.2032C38.4281 54.2032 38.521 53.9725 38.7689 52.3931C39.0788 50.5119 39.1717 47.353 38.9703 45.5074C38.7689 43.6795 38.7224 43.3778 38.6295 43.2003C38.5675 43.0939 38.5055 42.7922 38.4591 42.526C38.3041 41.4434 37.0493 38.8702 36.1197 37.6812L35.7634 37.2375L36.2282 35.9065C36.7549 34.469 37.3436 33.6704 38.3816 32.9606C38.9703 32.5702 39.2802 32.4992 40.3956 32.4814C42.8279 32.4282 45.1673 31.2392 46.3912 29.429C47.2587 28.169 47.5841 27.4237 47.8474 26.2169C48.0333 25.4183 48.0953 25.3118 48.3277 25.4715C48.653 25.6667 49.2417 25.6845 49.2417 25.4893C49.2417 25.4183 48.777 25.2053 48.2038 25.0279C46.8094 24.6019 45.6785 23.9808 45.0278 23.271C44.4391 22.6321 44.2842 22.3659 43.4321 20.5735C41.6815 16.8822 41.0928 16.0481 39.9618 15.6932C39.2647 15.4802 37.4056 15.498 36.8943 15.7109C36.6929 15.7997 36.538 15.7997 36.538 15.7109C36.538 15.4625 37.6844 15.0011 38.8309 14.7704C39.7759 14.5929 39.9618 14.6106 40.9223 14.9656C42.2082 15.4625 43.7884 16.6515 44.2067 17.4323C44.9813 18.9053 45.8799 20.1476 46.4066 20.538C46.732 20.7687 47.4756 21.1236 48.0798 21.3543C48.6685 21.5673 49.2572 21.8335 49.3657 21.94C49.6291 22.1884 49.7685 21.9932 50.0164 21.1059C50.76 18.3907 53.0993 15.1075 55.1288 13.9185C55.5162 13.7056 55.9964 13.4216 56.2133 13.2974C56.5387 13.1022 57.4062 12.836 57.6851 12.8182C57.7161 12.8182 58.1034 12.7118 58.5217 12.5875C59.0019 12.4456 59.9625 12.3746 61.0469 12.4101C62.5342 12.4456 62.999 12.5343 64.1609 13.0134C65.6791 13.6168 66.2214 13.954 67.6002 15.1253C69.2579 16.545 71.0085 19.3135 71.5198 21.3543C71.6282 21.7625 71.7986 22.4191 71.8916 22.8273C72.1395 23.7679 72.124 26.696 71.8606 27.956C70.8226 33.2623 67.5847 36.8648 62.906 37.9474C60.9385 38.4088 58.878 38.1781 56.7865 37.273C55.2063 36.5986 53.843 35.5516 52.6036 34.0609C51.8135 33.138 50.2178 30.4583 50.2952 30.2099C50.3107 30.1211 50.2333 29.8372 50.1093 29.571C49.9854 29.3048 49.7685 28.453 49.6291 27.6721C49.4896 26.8913 49.3502 26.2346 49.3037 26.1814C49.1023 25.9507 49.1023 26.4298 49.3037 27.6011C50.2023 32.8541 53.5331 36.9536 57.9949 38.3023C59.5132 38.7637 62.0384 38.7282 63.6961 38.2491C66.0665 37.5569 67.7241 36.4212 69.4283 34.3093C72.3409 30.7423 73.3169 25.649 71.9845 21.0171C70.7297 16.616 68.1579 13.6878 64.2074 12.1971C63.1074 11.7889 62.6891 11.7357 60.861 11.7179C59.0949 11.7002 58.5836 11.7712 57.6076 12.1084C53.9514 13.3861 51.0234 16.3853 49.8614 20.0411C49.66 20.6267 49.4741 21.1591 49.4122 21.2301C49.3657 21.3011 49.0403 21.2478 48.6995 21.1236C48.1263 20.8929 48.0643 20.8042 47.739 19.6862L47.3827 18.4794L47.708 18.2132C47.9094 18.0535 48.0024 17.805 47.9714 17.5566C47.9404 17.2904 48.0798 16.9532 48.3742 16.5983C48.746 16.1546 48.8699 16.1013 49.1798 16.2611C49.6755 16.5273 50.0783 16.1546 49.9389 15.569C49.8769 15.2495 49.9544 15.0366 50.2797 14.7171L50.7135 14.2912L48.9629 12.3036L47.2277 10.316L46.8714 10.6886C46.6235 10.9548 46.4531 11.0081 46.2982 10.9016C45.9729 10.6532 45.8644 10.6886 45.5236 11.0791C45.2602 11.3808 45.2447 11.4872 45.3996 11.7889C45.5701 12.1084 45.5391 12.2149 45.1518 12.6408C44.7954 13.0134 44.5631 13.1199 44.2067 13.0667C43.556 12.978 43.2462 13.4039 43.4786 14.025C43.6335 14.3799 43.618 14.4864 43.4476 14.5574C43.1223 14.6994 43.0138 15.1608 43.2152 15.4447C43.4941 15.8351 43.2462 15.7287 42.58 15.1785C42.2392 14.8946 41.4956 14.5219 40.9378 14.3444C40.0548 14.0782 39.7604 14.0605 38.8464 14.238C36.4141 14.7171 34.586 16.4208 36.8169 16.1191C38.5675 15.8884 39.6055 15.9949 40.3491 16.4918C40.7209 16.7402 41.1083 17.1129 41.2012 17.3259C41.3716 17.6808 41.2787 17.8405 40.1322 19.0828L38.8619 20.467L38.3661 20.1653C37.2816 19.5619 34.9423 19.7216 33.7649 20.5025C33.3311 20.8042 33.2691 20.8042 33.3466 20.5735C33.6564 19.6507 33.9043 17.7695 33.9043 16.3853C33.9043 15.356 33.9663 14.8058 34.0747 14.8058C34.7254 14.8058 35.7634 13.1732 35.7634 12.1616C35.7634 10.8839 34.3226 9.94329 33.1917 10.4757C32.7269 10.7064 32.7114 10.6886 32.3551 9.99653C32.1692 9.60611 31.6734 8.82526 31.2706 8.25737L30.527 7.24581L30.9298 5.91482C32.0297 2.20579 30.7439 -0.740137 28.4045 0.164938ZM30.1087 0.892546C30.6044 1.3717 30.5734 1.3717 29.6594 0.892546C28.9313 0.519869 28.4045 0.626348 27.5679 1.33621C26.9482 1.83311 26.7313 1.88635 27.1341 1.42494C27.5369 0.963533 28.5749 0.448882 29.1017 0.431136C29.458 0.431136 29.7988 0.590855 30.1087 0.892546ZM29.0862 1.97509C29.5045 2.09931 30.0002 3.21735 29.9538 3.94495C29.9073 4.81454 29.6904 5.7551 29.5355 5.7551C29.458 5.7551 29.4425 5.66637 29.489 5.55989C29.6284 5.31144 29.2256 4.97425 28.0947 4.31763C27.0412 3.732 26.7778 3.67876 26.7778 4.06918C26.7778 4.21115 26.7004 4.33538 26.6074 4.33538C26.2976 4.33538 27.0567 3.18185 27.8158 2.52523C28.2186 2.15255 28.5904 1.85086 28.6369 1.85086C28.6834 1.85086 28.8848 1.9041 29.0862 1.97509ZM14.7403 2.89791C14.8022 2.96889 14.5079 3.00439 14.0896 2.95115C13.5164 2.89791 13.191 2.95115 12.9122 3.16411C12.4474 3.51904 11.8277 4.60158 11.6108 5.41792C11.5023 5.91482 11.4714 5.95032 11.4559 5.59538C11.4249 4.92102 12.1995 3.32382 12.7417 2.91565C13.1136 2.63171 13.3769 2.56072 13.9192 2.64946C14.291 2.7027 14.6628 2.80917 14.7403 2.89791ZM21.6653 4.15791C20.24 4.29989 17.8852 4.81454 17.4514 5.08073C17.2655 5.16947 17.1726 5.16947 17.1726 5.06299C17.1726 4.67256 20.0231 4.01594 21.7428 4.03369H22.9822L21.6653 4.15791ZM27.475 4.51284C27.5989 4.74355 27.3975 4.74355 27.0877 4.51284C26.8863 4.37087 26.8863 4.33538 27.1187 4.33538C27.2581 4.33538 27.4285 4.40636 27.475 4.51284ZM15.267 5.63088L15.9796 6.41173L15.4219 7.01511C15.1276 7.35229 14.5234 7.97342 14.0896 8.38159C13.2375 9.21568 13.1755 9.3754 13.5473 9.85456C13.6868 10.032 13.7487 10.2627 13.6868 10.3692C13.4544 10.7951 12.9896 9.07371 12.8812 7.51201L12.7882 5.95032L13.2685 5.41792C13.9346 4.65482 14.3994 4.69031 15.267 5.63088ZM29.4735 6.09229C29.4425 6.14553 29.2876 6.03905 29.1327 5.86158C28.8848 5.55989 28.8848 5.54214 29.2101 5.77285C29.396 5.89708 29.52 6.03905 29.4735 6.09229ZM16.181 6.97962C16.1191 7.06835 16.181 7.19257 16.274 7.24581C16.3824 7.29905 16.336 7.3168 16.1655 7.29905C15.9641 7.28131 15.8557 7.37004 15.8557 7.56525C15.8557 7.97342 15.6853 8.13314 15.5768 7.83145C15.4839 7.56525 15.9022 6.8199 16.1346 6.8199C16.212 6.8199 16.2275 6.89088 16.181 6.97962ZM15.4684 8.31061C15.4684 8.3461 15.3599 8.47033 15.236 8.59455C15.0346 8.78976 15.0191 8.77202 15.0966 8.52357C15.174 8.27511 15.4684 8.1154 15.4684 8.31061ZM27.0722 8.78976C27.506 8.89624 27.8933 9.03822 27.9397 9.12695C27.9862 9.19794 27.7229 9.18019 27.351 9.09146C26.6384 8.89624 25.1511 9.00272 24.2681 9.30442C23.2456 9.6416 21.9442 10.7951 21.402 11.8244C21.1386 12.3391 20.8597 12.978 20.8133 13.2442C20.7513 13.5281 20.6428 13.7411 20.5809 13.7411C20.302 13.7411 20.9062 12.0729 21.5414 11.0436C22.2076 9.96104 24.5004 8.63005 25.7243 8.6123C26.0342 8.59455 26.6539 8.68329 27.0722 8.78976ZM14.6938 9.21568C14.5853 9.3754 14.4614 9.44639 14.3994 9.39315C14.3529 9.33991 14.4149 9.21568 14.5388 9.12695C14.8642 8.8785 14.9107 8.91399 14.6938 9.21568ZM14.1515 9.83681C14.198 9.92554 14.167 10.0143 14.0896 10.0143C13.9966 10.0143 13.9192 9.92554 13.9192 9.83681C13.9192 9.73033 13.9501 9.65935 13.9811 9.65935C14.0276 9.65935 14.1051 9.73033 14.1515 9.83681ZM11.3784 10.8484C11.2545 11.1146 11.146 11.292 11.1305 11.221C11.1305 11.0081 11.4869 10.1917 11.5488 10.2627C11.5953 10.2982 11.5178 10.5644 11.3784 10.8484ZM34.586 10.7419C35.3761 11.1501 35.5 12.6763 34.8338 13.7411C34.5395 14.2202 33.9663 14.5929 33.8114 14.3977C33.7649 14.3444 33.7184 14.1492 33.7029 13.954C33.6719 13.4926 33.4395 13.6346 33.4395 14.096C33.4395 14.3267 33.3621 14.3977 33.2072 14.3444C33.0832 14.2735 32.9748 14.1315 32.9748 14.0073C32.9748 13.883 32.8663 13.6878 32.7424 13.5636C32.4635 13.2974 32.4325 13.5636 32.6959 13.9185C32.8043 14.0605 32.7269 14.0073 32.5255 13.7943C32.1847 13.4394 32.1692 13.3861 32.417 13.1199C32.5565 12.9602 32.6649 12.6585 32.6494 12.4456C32.6339 12.0906 32.6184 12.1084 32.448 12.552C32.1847 13.2087 32.0297 12.9602 32.2466 12.2503C32.7269 10.7951 33.5945 10.2272 34.586 10.7419ZM48.8544 12.623C48.9784 12.836 49.0403 13.1554 48.9939 13.3329C48.9164 13.5991 48.9319 13.5991 49.0713 13.3861C49.2108 13.1554 49.3037 13.2087 49.7065 13.6701L50.1868 14.2202L49.6291 14.7881C49.3192 15.0898 48.9939 15.285 48.9009 15.2318C48.808 15.1608 48.777 15.1785 48.8235 15.285C48.8854 15.3915 48.6066 15.7997 48.2193 16.2078C47.5996 16.829 47.4601 16.8999 47.2432 16.7225C46.6855 16.2078 46.639 16.1191 46.794 15.7642C46.8869 15.569 46.732 15.6754 46.4221 15.9949C46.1433 16.3143 45.8024 16.5805 45.694 16.5805C45.5701 16.5805 46.0038 15.9771 46.6235 15.2318C47.2587 14.5042 47.77 13.8298 47.77 13.7411C47.77 13.6701 47.8165 13.5281 47.8939 13.4571C47.9559 13.3861 48.0024 13.2442 48.0024 13.1377C47.9869 12.9425 47.646 13.5103 47.5996 13.7765C47.5841 13.8653 47.5686 13.9718 47.5531 14.0427C47.5376 14.1315 47.4601 14.0605 47.3827 13.9185C47.2742 13.7411 47.2277 13.7233 47.2122 13.8653C47.1503 14.4687 47.1193 14.5396 46.9334 14.4864C46.8249 14.4687 46.7785 14.5219 46.8249 14.6106C46.9489 14.8236 46.5461 15.1963 46.3757 15.0188C46.2982 14.9478 46.2982 14.9833 46.3447 15.0898C46.4531 15.3205 46.0968 15.7642 45.9419 15.5867C45.8954 15.5335 45.7715 15.5335 45.6785 15.6044C45.5391 15.7109 45.5391 15.7819 45.694 15.9061C45.8644 16.0481 45.8489 16.0659 45.663 15.9949C45.5236 15.9416 45.3222 15.9949 45.2292 16.1013C45.1053 16.2433 44.9813 16.2256 44.7954 15.9949C44.625 15.7997 44.594 15.6932 44.718 15.6932C44.8264 15.6932 44.9039 15.7819 44.9039 15.9061C44.9039 16.0126 45.0433 15.9594 45.2137 15.7819C45.3841 15.6044 45.5236 15.3737 45.5236 15.2673C45.5236 15.1608 45.4461 15.214 45.3532 15.3737C45.2757 15.5512 45.1208 15.6932 45.0278 15.6932C44.9194 15.6932 44.9349 15.6044 45.0588 15.427C45.1982 15.2495 45.1982 15.1608 45.0743 15.1608C44.9813 15.1608 44.9039 15.2318 44.9039 15.3205C44.9039 15.6399 44.4081 15.6932 43.9589 15.4092L43.4941 15.143L45.3996 13.0489L47.3052 10.9548L47.9714 11.5937C48.3432 11.9487 48.7305 12.4101 48.8544 12.623ZM46.1123 11.434C45.8954 11.8244 45.7405 11.8777 45.601 11.6115C45.4616 11.3453 45.663 11.0791 46.0038 11.0791C46.2672 11.0791 46.2827 11.1323 46.1123 11.434ZM26.4215 11.5405C26.5919 12.0374 25.9412 12.552 25.0272 12.6408C24.0667 12.7295 23.8033 12.4988 24.2526 11.9309C24.6244 11.4517 25.0117 11.2743 25.7398 11.2743C26.1426 11.2565 26.3595 11.3453 26.4215 11.5405ZM10.8827 12.1084C10.5883 12.8005 10.4644 12.8537 10.6813 12.2149C10.8672 11.6115 10.9911 11.3985 11.0686 11.4872C11.0995 11.5227 11.0221 11.8067 10.8827 12.1084ZM44.4391 13.3329C44.4391 13.4216 44.2532 13.6168 44.0518 13.7943C43.7265 14.0605 43.6645 14.0605 43.6645 13.8475C43.6645 13.7056 43.7884 13.4926 43.9434 13.4039C44.2687 13.1909 44.4391 13.1554 44.4391 13.3329ZM49.753 15.7819C49.7065 15.9239 49.5361 16.0481 49.3502 16.0481C49.0558 16.0481 49.0558 16.0304 49.3192 15.6932C49.6136 15.3205 49.8924 15.3737 49.753 15.7819ZM17.3275 15.9949C17.4669 16.1546 17.4824 16.2256 17.3585 16.1546C17.25 16.0836 16.9247 15.9771 16.6303 15.9416C16.243 15.8884 16.0881 15.9416 16.0881 16.1191C16.0881 16.2433 15.9796 16.4563 15.8557 16.5805C15.5768 16.8467 15.5459 16.5628 15.8092 16.2611C16.181 15.8351 15.8402 15.9239 15.3445 16.3853C15.0346 16.6692 14.7712 17.1129 14.6938 17.4678L14.5698 18.089L14.5543 17.5566C14.5388 16.9887 14.8797 16.2788 15.298 15.9594C15.9487 15.4802 16.9092 15.498 17.3275 15.9949ZM44.5011 16.545C44.3617 16.5805 44.0673 16.403 43.8349 16.1368L43.4321 15.6577L44.0828 16.0659C44.5166 16.3498 44.656 16.5095 44.5011 16.545ZM16.8782 16.7935C17.0331 16.8999 16.9712 16.9177 16.7078 16.829C16.3824 16.7225 16.3515 16.7402 16.5219 16.9709C16.6768 17.1839 16.6303 17.4323 16.305 18.2309C15.9332 19.1715 15.9177 19.5974 16.243 19.5974C16.3205 19.5974 16.3515 19.4909 16.305 19.349C16.1346 18.8343 17.281 16.5805 17.7303 16.5805C17.7922 16.5805 17.6683 16.7935 17.4514 17.0597C16.9557 17.663 16.5374 18.5859 16.4754 19.2247C16.4444 19.6507 16.3824 19.6862 15.8557 19.6329C15.2205 19.5974 14.9262 19.3845 14.6783 18.8521C14.5543 18.5859 14.5698 18.4439 14.7867 18.2842C14.9262 18.1599 15.0036 17.9647 14.9571 17.876C14.8952 17.7695 14.9571 17.6453 15.0811 17.5743C15.205 17.5211 15.3135 17.3614 15.3135 17.2016C15.3135 17.0597 15.3909 16.9354 15.4839 16.9354C15.7008 16.9354 15.5149 17.5921 15.1121 18.2309C14.8642 18.6391 14.8487 18.7811 15.0036 18.9408C15.1585 19.1005 15.174 19.1005 15.0966 18.923C15.0346 18.8166 15.0656 18.7101 15.1585 18.7101C15.267 18.7101 15.3135 18.8343 15.267 18.9763C15.205 19.1183 15.236 19.278 15.3135 19.3312C15.4839 19.4554 15.6543 18.8343 15.6543 18.0712C15.6543 17.734 15.7163 17.4678 15.7937 17.4678C15.8712 17.4678 15.9332 17.3436 15.9332 17.1839C15.9332 17.0419 15.9951 16.9709 16.0881 17.0242C16.1655 17.0774 16.274 16.9177 16.336 16.6515C16.3979 16.3498 16.4754 16.2611 16.5529 16.403C16.6148 16.5273 16.7698 16.7047 16.8782 16.7935ZM28.6369 16.9177C28.6369 17.1484 26.9173 18.1245 26.2821 18.2664C25.368 18.4616 25.5849 18.089 26.5144 17.8405C26.9482 17.734 27.5989 17.4501 27.9397 17.2194C28.6834 16.7047 28.6369 16.7225 28.6369 16.9177ZM45.8024 17.2194C45.9884 17.3614 46.1433 17.5743 46.1433 17.6808C46.1433 17.7873 46.0193 17.7518 45.8644 17.5921C45.7095 17.4146 45.3532 17.2904 45.0898 17.2904C44.8109 17.2904 44.594 17.2016 44.594 17.1129C44.594 16.829 45.4151 16.8999 45.8024 17.2194ZM17.6993 17.3791C17.6373 17.5211 17.5289 17.6453 17.4204 17.6453C17.3275 17.6453 17.3585 17.734 17.4824 17.8228C17.8077 18.0712 17.9472 18.0357 17.8542 17.7518C17.8077 17.6098 17.8387 17.4501 17.9317 17.3791C18.2725 17.1484 18.0866 17.876 17.7148 18.2842C17.4979 18.5149 17.3275 18.7988 17.3275 18.923C17.3275 19.0473 17.4824 18.9585 17.6528 18.7101C17.9317 18.3197 17.9472 18.3197 17.8077 18.6569C17.7148 18.8698 17.4824 19.1715 17.2965 19.3135C16.5529 19.9169 16.5993 18.6569 17.3585 17.5566C17.6993 17.0597 17.8232 16.9887 17.6993 17.3791ZM47.6615 17.6808C47.6305 17.7873 47.5066 17.9292 47.4136 17.9647C47.3052 18.0002 47.2587 17.9292 47.3207 17.7518C47.4291 17.4323 47.7545 17.3614 47.6615 17.6808ZM41.8674 19.1183C41.7744 19.4554 41.7899 19.4732 42.0068 19.278C42.2237 19.065 42.2547 19.1183 42.2392 19.5974C42.2237 19.9169 42.1772 20.0588 42.0998 19.9346C42.0378 19.7926 41.9139 19.8991 41.7434 20.2718C41.4026 21.0171 41.4336 21.1414 41.8364 20.7332C42.1617 20.396 42.1617 20.396 42.0688 20.8397C42.0068 21.0881 41.9603 21.4431 41.9603 21.6383C41.9603 21.8867 41.9139 21.9222 41.8364 21.7625C41.7434 21.6205 41.6505 21.727 41.542 22.1529C41.4491 22.5256 41.4336 22.8273 41.5265 22.9338C41.6505 23.0757 40.4886 24.4777 38.7069 26.3411C38.4126 26.6605 37.1267 28.0803 35.8563 29.5L33.5325 32.1087L33.424 31.4699C33.2381 30.4761 32.6649 29.358 32.1847 29.0208L31.7354 28.7014L34.7874 25.436C36.4605 23.6436 38.676 21.2478 39.6985 20.1121C41.4336 18.1777 41.5885 18.0712 41.7744 18.3729C41.8984 18.5859 41.9294 18.8698 41.8674 19.1183ZM38.1337 20.5202L38.5675 20.7155L38.1492 21.2124C37.8704 21.5495 37.6225 21.6915 37.4521 21.6383C37.2971 21.585 37.1267 21.6383 37.0647 21.7448C36.9873 21.9045 37.0338 21.9222 37.2507 21.8335C37.4056 21.7802 36.8169 22.5611 35.9183 23.5726C34.462 25.2408 33.8268 25.8442 34.1522 25.2408C34.2142 25.1166 34.1987 25.0989 34.0747 25.1698C33.9818 25.2408 33.9353 25.3828 33.9818 25.4715C34.0437 25.5603 33.5015 26.2701 32.8043 27.051L31.5185 28.4707L30.5889 28.3997C29.8453 28.3287 29.5045 28.3997 28.9777 28.6837C28.0482 29.2161 27.3975 30.2986 27.3355 31.3456C27.3046 31.8425 24.5469 33.2445 22.0217 34.0609C21.4175 34.2561 21.3865 33.2978 21.9287 31.7893C22.0681 31.4344 22.2386 31.1327 22.316 31.1327C22.4864 31.1327 22.4864 31.0972 22.1301 32.2862C21.7893 33.422 21.7118 34.0786 21.9752 33.6172C22.0526 33.4752 22.1301 33.209 22.1301 33.0316C22.1301 32.5702 22.6414 31.3811 22.7188 31.6473C22.7653 31.8071 22.8273 31.7893 22.9667 31.6118C23.0597 31.4699 23.5244 31.2569 23.9892 31.1504C25.1201 30.8842 25.0427 30.9197 25.9567 30.3873C26.406 30.1211 26.9018 29.9437 27.0722 29.9792C27.2736 30.0146 27.351 29.9614 27.3046 29.8017C27.2581 29.6775 27.2891 29.5177 27.382 29.4468C27.475 29.3935 27.5524 29.429 27.5524 29.5355C27.5524 29.642 27.6299 29.6775 27.7074 29.6242C27.8003 29.5532 27.8313 29.4468 27.7848 29.358C27.6919 29.1983 27.9862 28.9321 28.2496 28.9144C28.3425 28.8966 28.389 28.8079 28.358 28.6837C28.3425 28.5594 28.3735 28.4884 28.4355 28.5062C28.513 28.5239 28.7299 28.4707 28.9313 28.3997C29.2256 28.2932 29.2566 28.2222 29.0862 28.0803C28.9313 27.956 28.9622 27.9383 29.1946 28.027C29.4425 28.098 29.6594 27.9206 30.1706 27.2817C30.527 26.8203 30.7439 26.4121 30.6509 26.3766C30.3875 26.2701 30.7903 25.8087 31.1312 25.8087C31.3171 25.8087 31.3791 25.72 31.3326 25.5425C31.2551 25.3118 31.1931 25.3118 30.9917 25.4893C30.8523 25.6135 30.8988 25.4715 31.0847 25.1876C31.2861 24.8859 31.6269 24.3535 31.8438 23.9808C32.1537 23.4839 32.2931 23.3597 32.3861 23.5372C32.4945 23.6969 32.51 23.6614 32.448 23.4129C32.4015 23.2 32.541 22.6853 32.7889 22.1707C33.0987 21.514 33.3776 21.1769 33.9043 20.8929C35.1437 20.1831 37.0028 20.0233 38.1337 20.5202ZM41.6815 26.5541C41.6815 27.3882 41.573 28.3642 41.4336 28.7901C41.1392 29.713 40.597 30.6358 40.4111 30.5116C40.3336 30.4583 40.2252 30.5116 40.1632 30.618C40.1013 30.76 40.1167 30.7778 40.2252 30.7068C40.3336 30.6358 40.4111 30.6358 40.4111 30.7245C40.3956 30.8842 38.0098 32.9073 37.8084 32.9073C37.7464 32.9073 37.4056 33.209 37.0493 33.5817C36.4451 34.2383 35.9338 35.1789 35.6859 36.1017C35.5 36.7761 34.6634 38.7814 34.3846 39.1896C33.9353 39.8462 32.9128 40.9998 32.2621 41.5499C31.0227 42.6502 29.2101 43.1471 27.3355 42.9164C26.5454 42.8099 26.4525 42.7567 26.6849 42.5615C26.8398 42.4372 27.0567 42.384 27.1806 42.4372C27.3046 42.4905 27.444 42.4017 27.4905 42.242C27.5369 42.0823 27.6454 41.9936 27.7074 42.0468C27.7693 42.0823 28.0637 41.8339 28.358 41.4612C28.6679 41.1062 29.365 40.3077 29.9383 39.6865C30.496 39.0654 30.9608 38.462 30.9608 38.3378C30.9608 38.1958 31.0692 38.0006 31.1931 37.8764C31.3171 37.7521 31.4255 37.5392 31.4255 37.415C31.4255 37.273 31.565 37.1665 31.7354 37.1665C31.9678 37.1665 32.0452 37.0423 32.0452 36.7051C32.0452 36.3324 31.9833 36.2614 31.7819 36.3502C31.534 36.4389 31.534 36.4212 31.7973 36.2082C31.9523 36.0662 32.0452 35.8355 31.9987 35.7113C31.9678 35.5871 32.1537 35.2854 32.4325 35.0369C32.7114 34.8062 33.0212 34.3626 33.1452 34.0609C33.2691 33.7592 33.9353 32.9251 34.6324 32.233C35.7944 31.0617 36.3676 30.618 35.9338 31.1859C35.8099 31.3634 35.8254 31.4344 35.9803 31.4344C36.1042 31.4344 36.1817 31.2924 36.1507 31.1327C36.1197 30.9552 36.3521 30.547 36.6929 30.1744C37.2971 29.5355 37.576 29.358 37.3746 29.7485C37.3126 29.8727 37.3281 29.9082 37.3901 29.8372C37.4676 29.7662 37.545 29.571 37.5605 29.4113C37.6225 28.9853 41.3871 24.7972 41.5575 24.9569C41.635 25.0279 41.697 25.7555 41.6815 26.5541ZM13.8727 27.9383C13.9811 27.9383 14.1051 28.027 14.167 28.1513C14.2445 28.2755 14.198 28.311 14.0586 28.2222C13.9346 28.1513 14.0431 28.2932 14.2755 28.5417C14.5079 28.7901 14.7867 29.0031 14.8952 28.9853C15.0036 28.9853 14.9262 28.8966 14.7403 28.7901C14.5388 28.6837 14.3839 28.5239 14.3839 28.4352C14.3839 28.3465 14.5543 28.4175 14.7712 28.5772C14.9881 28.7369 15.1121 28.9321 15.0811 29.0208C14.9881 29.1806 15.9951 29.9614 16.6458 30.2454C16.9092 30.3696 17.1416 30.3518 17.3275 30.2454C17.5599 30.1034 17.6063 30.1211 17.5599 30.2986C17.4359 30.6358 18.3964 31.0085 18.6753 30.7423C18.8457 30.5825 18.8767 30.6003 18.8457 30.7778C18.8147 30.9375 19.0471 31.0617 19.5739 31.1682C20.4414 31.3456 21.0456 31.2392 21.0456 30.8842C21.0456 30.7423 21.1541 30.6003 21.278 30.5293C21.6808 30.3518 21.5259 30.689 20.8597 31.4344C19.8992 32.4814 19.2795 32.8009 18.1796 32.8009C16.5838 32.8009 15.0656 31.6651 13.7023 29.4645C13.0826 28.4707 11.9051 26.1282 11.9051 25.8797C11.9051 25.8265 12.3079 26.2701 12.8037 26.8558C13.284 27.4591 13.7797 27.9383 13.8727 27.9383ZM39.7914 25.862C39.7914 25.8974 39.6365 26.0749 39.4506 26.2701L39.0942 26.6073L39.3886 26.1991C39.6675 25.8265 39.7914 25.72 39.7914 25.862ZM38.8619 26.9445C38.8619 26.98 38.7379 27.122 38.5985 27.2462C38.3506 27.4769 38.3351 27.4591 38.5365 27.1752C38.7379 26.8913 38.8619 26.8025 38.8619 26.9445ZM16.0881 29.358C16.212 29.4468 16.2585 29.5355 16.1655 29.5355C16.0881 29.5355 15.9022 29.4468 15.7782 29.358C15.6543 29.2693 15.6233 29.1806 15.7008 29.1806C15.7937 29.1806 15.9641 29.2693 16.0881 29.358ZM31.4255 30.3341C31.0537 30.76 30.7129 31.0972 30.6819 31.0439C30.5889 30.9375 31.7664 29.5355 31.9523 29.5355C32.0297 29.5355 31.7973 29.8904 31.4255 30.3341ZM32.0452 31.0439C31.7664 31.3811 31.4875 31.6118 31.441 31.5763C31.41 31.5231 31.6114 31.2037 31.8903 30.8665C32.1692 30.5293 32.448 30.2986 32.4945 30.3341C32.5255 30.3873 32.3241 30.7068 32.0452 31.0439ZM35.2986 30.8487C35.2986 30.8842 35.1747 31.0262 35.0352 31.1504C34.7874 31.3811 34.7719 31.3634 34.9733 31.0794C35.1747 30.7955 35.2986 30.7068 35.2986 30.8487ZM14.5079 31.3989C14.4614 31.4521 14.3684 31.3634 14.322 31.1859C14.229 30.9375 14.2445 30.9197 14.3994 31.0794C14.5079 31.2037 14.5543 31.3456 14.5079 31.3989ZM21.6498 31.5409C21.5414 31.8071 21.4175 31.9668 21.34 31.9313C21.278 31.878 21.1851 31.9135 21.1231 32.02C21.0766 32.1087 20.9372 32.1975 20.8442 32.1975C20.7358 32.1975 20.8752 32.0378 21.1231 31.8425C21.3865 31.6473 21.5259 31.4876 21.4484 31.4876C21.371 31.4876 21.402 31.3634 21.5104 31.2214C21.7893 30.831 21.8667 31.0085 21.6498 31.5409ZM30.6664 31.7893C30.8523 32.0555 30.8523 32.0732 30.5734 31.949C30.403 31.8603 30.1397 31.7716 30.0002 31.7183C29.6749 31.6118 28.3735 32.091 27.1806 32.7654C26.6849 33.0316 26.2356 33.2268 26.1891 33.1735C26.1426 33.138 26.7623 32.7299 27.5679 32.2862C29.1791 31.3989 30.2791 31.2214 30.6664 31.7893ZM32.51 32.1087C32.2311 32.4459 31.9523 32.6766 31.9058 32.6411C31.8128 32.5169 32.6804 31.4876 32.8818 31.4876C32.9593 31.4876 32.8043 31.7716 32.51 32.1087ZM5.19695 32.4104C5.15048 32.5347 5.11949 32.4459 5.11949 32.1975C5.11949 31.949 5.15048 31.8603 5.19695 31.9668C5.22794 32.091 5.22794 32.304 5.19695 32.4104ZM20.271 32.6411C20.1626 32.7831 19.9922 32.9073 19.8992 32.9073C19.8063 32.9073 19.8682 32.7831 20.0231 32.6411C20.4105 32.304 20.5189 32.304 20.271 32.6411ZM5.35188 33.1203C5.38286 33.422 5.35188 33.4575 5.24343 33.2623C5.16597 33.1203 5.15048 32.9428 5.18146 32.8718C5.3054 32.6589 5.33638 32.6944 5.35188 33.1203ZM16.9402 33.0848C16.9866 33.1913 16.9247 33.209 16.8007 33.1558C16.5219 33.0316 16.4754 32.9073 16.6923 32.9073C16.7852 32.9073 16.8937 32.9783 16.9402 33.0848ZM21.3555 33.0848C21.3555 33.1735 21.3245 33.2623 21.2935 33.2623C21.247 33.2623 21.1696 33.1735 21.1231 33.0848C21.0766 32.9783 21.1076 32.9073 21.1851 32.9073C21.278 32.9073 21.3555 32.9783 21.3555 33.0848ZM25.9257 33.422C25.7243 33.6172 22.7808 34.682 22.4554 34.682C22.1921 34.6642 25.461 33.3155 25.8483 33.28C25.9722 33.2623 26.0032 33.3155 25.9257 33.422ZM21.2935 33.8834C21.309 34.0076 21.2316 34.1673 21.1386 34.2028C20.9992 34.2738 20.9682 34.1496 21.0147 33.8657C21.0921 33.422 21.2316 33.422 21.2935 33.8834ZM21.34 34.9304C21.309 34.9659 20.7978 35.0369 20.1936 35.0902C19.5119 35.1612 19.2485 35.1434 19.4964 35.0547C19.8682 34.895 21.4639 34.7885 21.34 34.9304ZM6.34339 36.9358C6.88562 38.0538 8.60527 40.4141 9.13201 40.7336C9.33342 40.8578 9.53482 40.84 9.78269 40.6981C10.0616 40.5384 10.0925 40.5384 9.93762 40.7336C9.65875 41.0708 9.68974 41.1595 10.1545 41.4079C10.4334 41.5499 10.6038 41.5677 10.7277 41.4257C10.8052 41.337 10.9446 41.2482 11.0376 41.2482C11.115 41.2482 11.0531 41.3547 10.8827 41.4967C10.6038 41.7451 10.6038 41.7629 10.8827 41.8871C11.0376 41.9581 11.3009 41.9226 11.4404 41.8161C11.6573 41.6564 11.7347 41.6741 11.8122 41.8693C11.8587 42.0468 11.8122 42.0823 11.6263 42.0113C11.4249 41.9403 11.4094 41.9581 11.5333 42.1178C11.6263 42.2243 12.2925 42.455 13.0051 42.6147C14.4924 42.9341 15.0346 43.1648 14.8952 43.4488C14.8332 43.573 14.7712 43.5553 14.7248 43.4133C14.6473 43.1116 14.1515 43.1471 13.9192 43.4665C13.7642 43.6972 13.7642 43.8037 13.9966 44.0877C14.3374 44.5136 14.198 44.5668 13.8417 44.1587C13.6248 43.9102 13.5318 43.8925 13.2065 44.0877C12.7882 44.3539 12.6798 44.904 13.0826 44.7265C13.2995 44.6201 13.315 44.6556 13.1445 44.8863C12.9586 45.1525 12.9276 45.1525 12.8037 44.904C12.6488 44.5846 12.6333 44.6023 11.5953 45.6671C11.208 46.0575 10.9446 46.3947 11.0066 46.3947C11.0841 46.3947 11.4094 46.1108 11.7502 45.7558C12.0911 45.4009 12.3699 45.188 12.3699 45.2589C12.3699 45.5251 11.2855 46.4302 10.8981 46.4835C10.4334 46.5367 9.61228 47.3175 9.70523 47.6192C9.75171 47.7967 9.70523 47.8144 9.45735 47.6547C9.17849 47.4773 8.03206 45.5606 8.03206 45.2589C8.03206 45.2057 7.89263 44.9927 7.7377 44.8153C7.56729 44.6201 7.47433 44.3184 7.52081 44.1232C7.55179 43.9457 7.45884 43.431 7.28842 43.0051C7.11801 42.5792 6.82365 41.6032 6.62225 40.8578C6.42085 40.1124 6.21945 39.58 6.15748 39.6688C6.09551 39.793 6.03354 39.7575 5.97157 39.5978C5.92509 39.4558 5.97157 39.2429 6.06453 39.1364C6.18847 38.9944 6.18847 38.8879 6.06453 38.746C5.97157 38.6395 5.92509 38.4265 5.97157 38.3023C6.01805 38.1603 5.97157 38.0538 5.87862 38.0538C5.75468 38.0538 5.72369 37.8409 5.80116 37.415C5.86313 37.0245 5.84763 36.7938 5.75468 36.8648C5.67722 36.9181 5.59976 36.6341 5.59976 36.2437C5.56877 35.3919 5.64623 35.4628 6.34339 36.9358ZM15.6233 37.344C15.6233 37.4327 15.5459 37.5214 15.4529 37.5214C15.3754 37.5214 15.3445 37.4327 15.3909 37.344C15.4374 37.2375 15.5149 37.1665 15.5613 37.1665C15.5923 37.1665 15.6233 37.2375 15.6233 37.344ZM15.5304 38.0716C15.4839 38.1603 15.3754 38.1958 15.298 38.1248C15.2205 38.0716 15.1895 37.9474 15.2515 37.8586C15.298 37.7699 15.4064 37.7344 15.4839 37.8054C15.5613 37.8586 15.5923 37.9829 15.5304 38.0716ZM15.2205 39.1896C15.174 39.5623 15.0811 39.8107 15.0501 39.7575C15.0036 39.7043 15.0191 39.3848 15.0656 39.0122C15.1276 38.6572 15.2205 38.4088 15.2515 38.462C15.298 38.5153 15.2825 38.8347 15.2205 39.1896ZM8.9616 40.006C8.9616 40.0947 8.93061 40.1834 8.89963 40.1834C8.85315 40.1834 8.77569 40.0947 8.72921 40.006C8.68274 39.8995 8.71372 39.8285 8.79118 39.8285C8.88414 39.8285 8.9616 39.8995 8.9616 40.006ZM9.50383 40.1834C9.55031 40.2899 9.48834 40.3077 9.3644 40.2544C9.08554 40.1302 9.03906 40.006 9.25595 40.006C9.34891 40.006 9.45735 40.0769 9.50383 40.1834ZM10.5883 41.0708C10.6348 41.1595 10.6038 41.2482 10.5263 41.2482C10.4334 41.2482 10.3559 41.1595 10.3559 41.0708C10.3559 40.9643 10.3869 40.8933 10.4179 40.8933C10.4644 40.8933 10.5418 40.9643 10.5883 41.0708ZM6.01805 41.9048C6.01805 42.242 7.38138 47.2643 7.55179 47.5482C7.61376 47.637 7.7377 47.9387 7.84615 48.2049L8.01656 48.7018L7.21096 48.613C5.87862 48.4533 5.42934 48.3468 4.65472 47.9742C3.78715 47.5482 2.56325 46.4302 2.65621 46.1463C2.68719 46.0398 2.6717 45.7736 2.59424 45.5784C2.43931 45.0637 2.78014 43.786 3.21393 43.2713C3.53927 42.8809 5.59976 41.6209 5.9096 41.6032C5.97157 41.6032 6.01805 41.7451 6.01805 41.9048ZM13.129 42.242C13.2685 42.4017 12.3079 42.1178 12.153 41.9403C12.0756 41.8516 12.2305 41.8693 12.5248 41.9581C12.8037 42.0468 13.0671 42.171 13.129 42.242ZM6.79267 42.5082C6.79267 42.6147 6.7307 42.6325 6.63774 42.5792C6.56028 42.526 6.48282 42.384 6.48282 42.2953C6.48282 42.1888 6.56028 42.171 6.63774 42.2243C6.7307 42.2775 6.79267 42.4195 6.79267 42.5082ZM16.0726 42.526C16.0416 42.5615 15.8092 42.7744 15.5459 43.0229C15.1431 43.4133 15.1121 43.4133 15.3754 43.0584C15.6698 42.6679 15.6698 42.6679 15.298 42.6502C15.0346 42.6325 15.0811 42.597 15.4684 42.5082C15.9487 42.4017 16.2585 42.4195 16.0726 42.526ZM30.558 43.4843C30.6354 43.7327 30.6199 43.7505 30.4185 43.5553C30.1552 43.3068 30.1242 43.2003 30.3256 43.2003C30.403 43.2003 30.5115 43.3246 30.558 43.4843ZM14.5388 43.7327C14.5388 43.8215 14.4304 43.9102 14.291 43.9102C14.167 43.9102 14.1051 43.8215 14.1515 43.7327C14.198 43.6263 14.3065 43.5553 14.3994 43.5553C14.4769 43.5553 14.5388 43.6263 14.5388 43.7327ZM7.25744 44.4426C7.25744 44.5313 7.17998 44.6201 7.08702 44.6201C7.00956 44.6201 6.97858 44.5313 7.02505 44.4426C7.07153 44.3361 7.14899 44.2651 7.19547 44.2651C7.22645 44.2651 7.25744 44.3361 7.25744 44.4426ZM28.5285 45.0105C28.7918 45.3832 28.8848 45.7204 28.6834 45.6316C28.6059 45.6139 28.5439 45.6671 28.5285 45.7736C28.513 45.8623 28.6059 45.9333 28.7299 45.8978C28.9777 45.8446 28.9467 46.448 28.6369 47.0868C28.451 47.495 28.0947 47.6015 28.2186 47.2111C28.3271 46.8739 27.5369 46.9981 27.3046 47.353C27.2116 47.5128 27.0567 47.637 26.9792 47.637C26.6694 47.637 26.2821 46.9449 26.2046 46.2527L26.1271 45.5429L26.9327 45.7381C27.6764 45.8978 27.7229 45.9511 27.4595 46.164C27.2271 46.3592 27.2271 46.3947 27.4285 46.3947C27.6919 46.3947 27.9243 45.9333 27.7693 45.6671C27.7229 45.5784 27.4905 45.5074 27.2271 45.5074C26.9792 45.5074 26.7778 45.4187 26.7778 45.3122C26.7778 45.188 27.0877 45.1347 27.6144 45.188C28.5749 45.2589 28.6214 45.0637 27.6919 44.8863C27.2116 44.7975 26.9947 44.833 26.7623 45.0815C26.6074 45.2412 26.4215 45.3477 26.375 45.2944C26.3285 45.2412 26.4835 45.0105 26.7313 44.7975C27.2426 44.3361 28.0947 44.4249 28.5285 45.0105ZM13.9192 44.6911C13.9192 44.7265 13.5938 45.0637 13.191 45.4364C12.7727 45.8091 12.5558 45.9688 12.6798 45.7736C13.1445 45.0815 13.9192 44.4071 13.9192 44.6911ZM7.41236 45.1525C7.41236 45.2412 7.38138 45.3299 7.35039 45.3299C7.30392 45.3299 7.22645 45.2412 7.17998 45.1525C7.1335 45.046 7.16448 44.975 7.24195 44.975C7.3349 44.975 7.41236 45.046 7.41236 45.1525ZM14.7867 45.6139C15.0501 45.8623 15.0501 45.8801 14.8022 45.7913C14.6473 45.7381 14.4459 45.6849 14.3684 45.6849C14.291 45.6849 14.229 45.5961 14.229 45.5074C14.229 45.2589 14.4304 45.2944 14.7867 45.6139ZM7.64475 45.8623C7.69122 45.9511 7.66024 46.0398 7.58278 46.0398C7.48982 46.0398 7.41236 45.9511 7.41236 45.8623C7.41236 45.7558 7.44335 45.6849 7.47433 45.6849C7.52081 45.6849 7.59827 45.7558 7.64475 45.8623ZM31.565 46.6254C31.565 46.9981 31.5495 46.9981 31.4255 46.6609C31.2396 46.164 31.2396 46.0043 31.4255 46.1285C31.5185 46.1818 31.5805 46.4125 31.565 46.6254ZM7.78418 46.5012C7.83066 46.6432 7.81516 46.7142 7.72221 46.6609C7.62925 46.6077 7.56729 46.4835 7.56729 46.377C7.56729 46.1285 7.67573 46.1818 7.78418 46.5012ZM16.7078 46.3947C16.8317 46.4835 16.8782 46.5722 16.7852 46.5722C16.7078 46.5722 16.5219 46.4835 16.3979 46.3947C16.274 46.306 16.243 46.2173 16.3205 46.2173C16.4134 46.2173 16.5838 46.306 16.7078 46.3947ZM2.98155 48.613C3.04352 49.3761 3.02802 49.7488 2.93507 49.5891C2.85761 49.4471 2.74916 48.7195 2.70268 47.9919C2.64071 47.1756 2.65621 46.8029 2.74916 47.0159C2.82662 47.2111 2.91958 47.9209 2.98155 48.613ZM10.6658 46.9271C10.6658 47.0159 10.5883 47.1046 10.4953 47.1046C10.4179 47.1046 10.3869 47.0159 10.4334 46.9271C10.4799 46.8206 10.5573 46.7497 10.6038 46.7497C10.6348 46.7497 10.6658 46.8206 10.6658 46.9271ZM18.257 47.1933C18.5049 47.5305 18.257 47.5305 17.8542 47.1933C17.6063 46.9804 17.6063 46.9449 17.8077 46.9271C17.9472 46.9271 18.1486 47.0513 18.257 47.1933ZM8.41937 47.8144C8.37289 47.9209 8.40387 47.9919 8.51232 47.9919C8.62077 47.9919 8.65175 48.0452 8.58978 48.1161C8.38838 48.3646 8.26444 48.1871 8.24895 47.6015C8.23346 47.1578 8.24895 47.1046 8.37289 47.3353C8.45035 47.5128 8.46584 47.7257 8.41937 47.8144ZM27.8003 47.566C27.7383 47.7257 27.6609 47.8322 27.6299 47.779C27.5834 47.7257 27.5834 47.5482 27.6454 47.3885C27.7074 47.2288 27.7848 47.1223 27.8158 47.1756C27.8623 47.2288 27.8623 47.4063 27.8003 47.566ZM13.7642 48.9857C13.7642 49.039 13.0671 49.0567 12.215 49.0212C11.3629 49.0035 10.6658 48.9325 10.6658 48.8792C10.6658 48.826 10.8981 48.5421 11.1615 48.2404L11.6728 47.6902L12.7108 48.2936C13.2995 48.613 13.7642 48.9325 13.7642 48.9857ZM19.7443 48.2936C19.6513 48.4001 19.1866 48.1339 19.1866 47.9742C19.1866 47.8854 19.326 47.9032 19.4964 48.0274C19.6513 48.1516 19.7753 48.2759 19.7443 48.2936ZM9.9686 48.8792C9.72072 49.1632 9.48834 49.3584 9.44186 49.3052C9.39538 49.2519 9.45735 49.1454 9.5658 49.0745C9.67425 48.9857 9.73622 48.826 9.67425 48.7195C9.61228 48.5953 9.65875 48.5598 9.78269 48.6308C9.90663 48.684 10.0616 48.6485 10.1235 48.5421C10.17 48.4356 10.263 48.3468 10.3094 48.3468C10.3714 48.3468 10.2165 48.5775 9.9686 48.8792ZM9.13201 49.5359C9.163 49.5181 9.14751 49.5714 9.07004 49.6778C8.99258 49.7843 8.89963 49.7488 8.80667 49.5891C8.57429 49.1809 8.63626 48.9325 8.86864 49.2697C8.97709 49.4471 9.10103 49.5714 9.13201 49.5359ZM21.3555 49.6246C21.3555 49.7133 21.2161 49.6778 21.0456 49.5536C20.8752 49.4294 20.7358 49.2697 20.7358 49.1987C20.7358 49.1099 20.8752 49.1454 21.0456 49.2697C21.2161 49.3939 21.3555 49.5536 21.3555 49.6246ZM38.5985 51.0798C38.552 51.5767 38.4281 52.3753 38.3351 52.8722L38.1647 53.7595L36.8479 53.8838C36.1197 53.9548 34.9113 54.0967 34.1367 54.2032C33.3776 54.3097 32.4945 54.4339 32.1847 54.4694L31.6114 54.5404L31.7354 53.8838C31.9678 52.6415 32.0297 52.5173 31.9523 53.4224L31.8748 54.3274L33.3156 54.0967C34.6324 53.8838 36.631 53.6531 37.6225 53.5998C37.9478 53.5821 38.0408 53.4579 38.1957 52.7302C38.4281 51.63 38.49 50.3877 38.3041 50.4054C37.6225 50.5297 34.7874 50.6539 34.8493 50.5652C34.9423 50.4764 37.2971 50.228 38.2886 50.2102C38.7069 50.1925 38.7069 50.2102 38.5985 51.0798ZM1.57174 50.4054C1.74216 50.6007 1.49428 51.0266 1.02951 51.2928C0.332351 51.7009 0.022504 51.275 0.549244 50.6184C0.78163 50.3167 1.37034 50.1925 1.57174 50.4054ZM22.44 50.8669C22.44 50.9733 22.3315 50.9556 22.2076 50.8314C22.0836 50.7071 21.9752 50.5297 21.9752 50.4409C21.9752 50.3345 22.0836 50.3522 22.2076 50.4764C22.3315 50.6007 22.44 50.7781 22.44 50.8669ZM32.51 50.8669C32.51 50.9378 32.448 51.0088 32.3551 51.0088C32.2776 51.0088 32.2001 51.3283 32.2001 51.7187C32.2001 52.1091 32.1537 52.4286 32.0917 52.4286C32.0142 52.4286 31.9678 52.0381 31.9523 51.5767C31.9523 50.8669 31.9987 50.7249 32.2311 50.7249C32.3861 50.7249 32.51 50.7959 32.51 50.8669ZM34.6634 50.7249C34.6324 50.7604 34.1522 50.8314 33.5945 50.9023C32.9283 50.9733 32.6649 50.9378 32.8198 50.8314C33.0367 50.6716 34.8184 50.5652 34.6634 50.7249ZM2.73367 51.6122C4.00404 52.677 4.32938 52.9964 4.26741 53.0852C4.18995 53.1562 1.83511 51.204 1.83511 51.0798C1.83511 50.9201 2.052 51.0443 2.73367 51.6122ZM23.3075 52.2156C23.2146 52.3043 22.7498 51.8074 22.7498 51.6122C22.7498 51.5412 22.8892 51.63 23.0597 51.8074C23.2301 51.9849 23.3385 52.1624 23.3075 52.2156ZM31.2706 53.3159C31.1622 54.0967 31.0227 54.7356 30.9608 54.7356C30.8988 54.7356 30.9453 54.2387 31.0537 53.6176C31.1622 53.0142 31.2551 52.4108 31.2706 52.2866C31.2706 52.0026 30.0777 52.0204 27.3201 52.3398C26.1271 52.4818 25.0427 52.5883 24.9187 52.5883C24.3145 52.535 26.1581 52.2688 28.2496 52.0736C29.5355 51.9671 30.7439 51.8607 30.9608 51.8429C31.1777 51.8252 31.3791 51.8252 31.41 51.8429C31.441 51.8607 31.3791 52.5173 31.2706 53.3159ZM24.6089 52.4995C24.6089 52.5528 24.5469 52.6415 24.454 52.6947C24.3765 52.748 24.299 52.7125 24.299 52.6238C24.299 52.5173 24.3765 52.4286 24.454 52.4286C24.5469 52.4286 24.6089 52.464 24.6089 52.4995ZM24.0667 52.7835C24.0202 52.8722 23.8033 52.9609 23.6019 52.9609C23.4005 52.9609 23.1836 53.0497 23.1371 53.1384C23.0751 53.2449 22.9512 53.2626 22.8583 53.1917C22.7498 53.1207 22.9202 52.9787 23.292 52.8545C24.0821 52.5705 24.1906 52.5705 24.0667 52.7835ZM30.8058 55.7827C30.7129 56.2086 30.5734 56.4748 30.4805 56.4038C30.3875 56.3505 28.7299 56.2973 26.7623 56.2973C24.8103 56.315 23.2146 56.2618 23.2146 56.1908C23.2146 56.1198 24.3145 56.0488 25.6624 56.0134C26.9947 55.9779 28.2806 55.9246 28.513 55.9069C28.7453 55.8714 28.9003 55.9246 28.8538 55.9956C28.8073 56.0843 29.1946 56.1553 29.7059 56.1553C30.527 56.1553 30.6509 56.1198 30.6509 55.8181C30.6509 55.41 30.8213 54.8598 30.9143 54.9841C30.9453 55.0195 30.8988 55.3922 30.8058 55.7827Z" fill="url(#paint0_linear_226_110)"/>
<path d="M32.7734 11.5404C32.6494 11.6824 32.7888 11.9663 32.9593 11.9663C33.0212 11.9663 33.0832 11.8421 33.0832 11.7001C33.0832 11.4162 32.9438 11.3452 32.7734 11.5404Z" fill="url(#paint1_linear_226_110)"/>
<path d="M32.9283 13.0313C32.8818 13.2265 32.9128 13.4394 32.9903 13.4927C33.0677 13.5459 33.1297 13.4572 33.1297 13.3152C33.1297 13.1555 33.2071 13.0313 33.2846 13.0313C33.3776 13.0313 33.4395 12.9425 33.4395 12.8538C33.4395 12.5166 33.0057 12.6763 32.9283 13.0313Z" fill="url(#paint2_linear_226_110)"/>
<path d="M45.8179 13.1376C44.6715 14.4154 44.4236 14.788 44.718 14.717C45.1363 14.6283 45.3841 14.4508 45.0743 14.4508C44.9659 14.4508 44.9349 14.3621 44.9813 14.2734C45.0433 14.1669 45.1518 14.1314 45.2292 14.1846C45.3067 14.2556 45.3687 14.2201 45.3687 14.1137C45.3687 14.0249 45.5081 13.9007 45.6785 13.8297C45.8489 13.7765 45.9729 13.6345 45.9419 13.5103C45.9264 13.4038 46.0038 13.3151 46.1123 13.2973C46.2052 13.2973 46.2982 13.2263 46.2827 13.1553C46.2827 13.0666 46.4066 12.8714 46.5616 12.7117C46.732 12.552 46.9644 12.2325 47.1038 12.0018L47.3362 11.6114L47.9869 12.3213C48.3587 12.7294 48.6221 12.9246 48.6221 12.7649C48.6221 12.623 48.3277 12.2858 47.9559 11.9841L47.2897 11.4694L45.8179 13.1376Z" fill="url(#paint3_linear_226_110)"/>
<path d="M47.1967 12.6586C46.8559 13.049 46.8249 13.333 47.1503 13.0313C47.2897 12.8893 47.3826 12.8715 47.3826 12.9958C47.3826 13.2265 47.1812 13.3862 46.732 13.4749C46.5461 13.5282 46.3292 13.6524 46.2362 13.7589C46.1123 13.9186 46.1433 13.9186 46.3911 13.7766C46.577 13.6701 46.763 13.6347 46.8249 13.6879C46.9953 13.8831 47.5066 13.2087 47.5066 12.7651C47.5066 12.5166 47.4911 12.3214 47.4756 12.3392C47.4756 12.3392 47.3362 12.4811 47.1967 12.6586Z" fill="url(#paint4_linear_226_110)"/>
<path d="M49.2417 13.6346C49.2417 13.6701 49.3657 13.8121 49.5206 13.9363C49.753 14.167 49.7685 14.1492 49.5671 13.8653C49.3657 13.5813 49.2417 13.4926 49.2417 13.6346Z" fill="url(#paint5_linear_226_110)"/>
<path d="M47.5996 14.6462C47.2277 15.1076 47.2123 15.1786 47.4911 15.0011C47.6925 14.8947 47.9094 14.6462 48.0024 14.451C48.2348 13.9541 48.1263 14.0073 47.5996 14.6462Z" fill="url(#paint6_linear_226_110)"/>
<path d="M46.0658 14.6461C46.0038 14.7526 45.8644 14.7881 45.7405 14.7349C45.632 14.6816 45.4926 14.7349 45.4306 14.8414C45.3687 14.9478 45.3841 14.9833 45.4926 14.9123C45.5701 14.8591 45.6785 14.8946 45.7095 15.0011C45.7405 15.1076 45.8954 15.0188 46.0503 14.8236C46.2207 14.6107 46.2982 14.4509 46.2517 14.4509C46.2052 14.4509 46.1123 14.5397 46.0658 14.6461Z" fill="url(#paint7_linear_226_110)"/>
<path d="M48.8544 14.6107C48.808 14.6994 48.8234 14.8236 48.9009 14.8769C48.9784 14.9301 49.0403 14.8591 49.0403 14.7171C49.0403 14.4154 48.9939 14.38 48.8544 14.6107Z" fill="url(#paint8_linear_226_110)"/>
<path d="M44.0363 15.1963C44.1912 15.3028 44.3771 15.3028 44.4391 15.2318C44.5166 15.143 44.3926 15.0543 44.1602 15.0366C43.8194 15.0188 43.7884 15.0366 44.0363 15.1963Z" fill="url(#paint9_linear_226_110)"/>
<path d="M48.1573 15.356C48.1573 15.4448 48.2347 15.4803 48.3122 15.427C48.4052 15.3738 48.4671 15.285 48.4671 15.2318C48.4671 15.1963 48.4052 15.1608 48.3122 15.1608C48.2347 15.1608 48.1573 15.2495 48.1573 15.356Z" fill="url(#paint10_linear_226_110)"/>
<path d="M47.615 16.2256C47.5686 16.3321 47.6305 16.3499 47.7545 16.2966C48.0333 16.1724 48.0798 16.0482 47.8629 16.0482C47.77 16.0482 47.6615 16.1191 47.615 16.2256Z" fill="url(#paint11_linear_226_110)"/>
<path d="M25.1356 11.6292C24.8723 11.7179 24.5314 11.9664 24.361 12.1793C24.2061 12.41 24.1751 12.481 24.299 12.3568C24.5624 12.1083 24.8258 12.0728 24.6863 12.3213C24.5314 12.623 24.7948 12.5165 25.0272 12.1793C25.2441 11.8954 25.2441 11.8954 25.1666 12.1793C25.1201 12.3568 25.1511 12.4988 25.2441 12.4988C25.337 12.4988 25.4455 12.339 25.492 12.1438C25.5539 11.9131 25.6779 11.7889 25.8638 11.8244C26.0187 11.8599 26.1581 11.7889 26.1891 11.7002C26.2511 11.4695 25.7243 11.4162 25.1356 11.6292Z" fill="url(#paint12_linear_226_110)"/>
<path d="M16.2895 17.3259C15.9951 17.876 15.7782 18.4084 15.8402 18.4794C15.8867 18.5327 16.0571 18.2487 16.243 17.8406C16.5374 17.1662 16.5684 16.829 16.2895 17.3259Z" fill="url(#paint13_linear_226_110)"/>
<path d="M17.1881 18.3196C16.9247 18.8698 16.9866 19.0295 17.2655 18.5681C17.4049 18.3374 17.4824 18.1066 17.4359 18.0534C17.3895 18.0179 17.281 18.1244 17.1881 18.3196Z" fill="url(#paint14_linear_226_110)"/>
<path d="M34.4775 21.0172C33.4395 21.3898 33.2536 21.5318 33.8113 21.4786C34.0282 21.4786 34.2141 21.4076 34.2141 21.3544C34.2141 21.1946 35.7479 20.8397 36.6929 20.7865C37.4211 20.7332 37.3746 20.7332 36.4605 20.7155C35.8099 20.6977 35.0197 20.822 34.4775 21.0172Z" fill="url(#paint15_linear_226_110)"/>
<path d="M37.8549 20.8396C37.8084 20.9284 37.8394 21.0171 37.9168 21.0171C38.0098 21.0171 38.0872 20.9284 38.0872 20.8396C38.0872 20.7331 38.0563 20.6622 38.0253 20.6622C37.9788 20.6622 37.9013 20.7331 37.8549 20.8396Z" fill="url(#paint16_linear_226_110)"/>
<path d="M31.9058 24.3179C31.9058 24.5132 31.9523 24.5664 31.9987 24.4244C32.0452 24.3002 32.0297 24.1405 31.9833 24.0872C31.9368 24.0163 31.8903 24.1227 31.9058 24.3179Z" fill="url(#paint17_linear_226_110)"/>
<path d="M31.4565 24.9214C31.3636 25.0989 31.3326 25.2941 31.41 25.3473C31.4875 25.4006 31.5805 25.2763 31.6269 25.0634C31.7509 24.5487 31.6889 24.4955 31.4565 24.9214Z" fill="url(#paint18_linear_226_110)"/>
<path d="M30.9608 28.0092C30.9608 28.0447 31.0692 28.1334 31.2086 28.1866C31.3326 28.2399 31.3945 28.2221 31.3481 28.1156C31.2551 27.9382 30.9608 27.8672 30.9608 28.0092Z" fill="url(#paint19_linear_226_110)"/>
<path d="M41.1857 25.4539C41.1857 25.5426 41.2632 25.6313 41.3561 25.6313C41.4336 25.6313 41.4646 25.5426 41.4181 25.4539C41.3716 25.3474 41.2942 25.2764 41.2477 25.2764C41.2167 25.2764 41.1857 25.3474 41.1857 25.4539Z" fill="url(#paint20_linear_226_110)"/>
<path d="M34.7409 37.3084C34.8029 37.4148 34.7719 37.6988 34.6789 37.9118C34.5085 38.3022 34.524 38.3022 34.7409 37.9827C35.0352 37.5568 35.0507 37.4148 34.8029 37.2374C34.6944 37.1664 34.6789 37.1841 34.7409 37.3084Z" fill="url(#paint21_linear_226_110)"/>
<path d="M27.8623 46.3948C27.8623 46.4835 27.9397 46.5723 28.0172 46.5723C28.1102 46.5723 28.1721 46.4835 28.1721 46.3948C28.1721 46.2883 28.1102 46.2173 28.0172 46.2173C27.9397 46.2173 27.8623 46.2883 27.8623 46.3948Z" fill="url(#paint22_linear_226_110)"/>
<path d="M28.42 46.3591C28.389 46.4301 28.4045 46.6076 28.4975 46.7496C28.6059 46.9625 28.6369 46.927 28.6369 46.6076C28.6369 46.1994 28.5594 46.1107 28.42 46.3591Z" fill="url(#paint23_linear_226_110)"/>
<path d="M59.2653 14.5752C58.9554 15.1431 58.8005 17.9293 58.9864 19.6862C59.2808 22.3482 59.6371 23.0048 60.954 23.2356C61.4807 23.342 61.6511 23.2888 62.0539 22.8984C62.6891 22.2772 63.0919 20.4493 62.9525 18.7279C62.7201 15.6045 62.5807 14.8059 62.2553 14.8059C62.1624 14.8059 62.1159 15.6223 62.1314 17.0598C62.1779 20.6978 61.8525 22.082 60.9385 22.082C60.1484 22.082 59.6991 20.3784 59.5132 16.7581C59.4512 15.4448 59.3273 14.451 59.2653 14.5752Z" fill="url(#paint24_linear_226_110)"/>
<path d="M64.3003 15.3206C64.2074 15.6223 64.1919 15.8707 64.2538 15.8707C64.4088 15.8707 64.6412 14.9834 64.5327 14.8592C64.4862 14.8237 64.3933 15.0366 64.3003 15.3206Z" fill="url(#paint25_linear_226_110)"/>
<path d="M56.8795 15.2495C56.8795 15.3915 57.0499 15.711 57.2513 15.9949C57.5302 16.3676 57.5921 16.4031 57.4527 16.1014C57.3752 15.8884 57.2203 15.6577 57.1429 15.6045C57.0499 15.5335 57.0189 15.427 57.0654 15.3383C57.1119 15.2495 57.0964 15.1431 57.0189 15.0898C56.9415 15.0366 56.8795 15.1076 56.8795 15.2495Z" fill="url(#paint26_linear_226_110)"/>
<path d="M64.0524 16.3498C63.9595 16.5983 63.975 16.616 64.1299 16.4563C64.2384 16.3321 64.2848 16.1901 64.2384 16.1369C64.1919 16.0836 64.0989 16.1724 64.0524 16.3498Z" fill="url(#paint27_linear_226_110)"/>
<path d="M65.4623 17.113C64.9355 17.5921 64.5172 18.8876 64.6412 19.6152C64.6876 19.9347 65.044 20.5558 65.4313 21.0349C66.0045 21.7448 66.1284 22.011 66.1284 22.5611C66.1284 23.3597 65.8186 23.9276 65.1989 24.3003C64.5327 24.6907 64.0215 24.6197 63.4482 24.0341C62.8595 23.4485 62.7046 23.484 62.8595 24.1583C63.1229 25.3119 64.5327 25.7555 65.6637 25.0634C66.6242 24.46 67.058 23.6792 67.058 22.5257C67.058 21.6738 66.996 21.5141 66.3918 20.7332C65.5862 19.7039 65.3538 19.2425 65.3538 18.6392C65.3538 17.7873 66.6087 17.113 67.058 17.7341C67.2904 18.0713 67.5227 18.0713 67.5227 17.7696C67.5227 17.3437 66.8256 16.758 66.3298 16.758C66.0665 16.758 65.6791 16.9177 65.4623 17.113Z" fill="url(#paint28_linear_226_110)"/>
<path d="M55.826 17.7695C54.788 17.8583 53.3782 18.1777 53.4867 18.3197C53.5331 18.3729 54.4007 18.3907 55.3922 18.3729L57.2048 18.3197L55.6711 20.1653C53.3937 22.916 52.867 23.8743 53.5022 24.1583C53.9669 24.3535 58.5062 23.5194 58.878 23.1645C58.94 23.1112 58.9245 22.9515 58.8625 22.8096C58.7386 22.5966 58.4442 22.5966 56.8795 22.8628C55.8725 23.0225 54.9584 23.1467 54.85 23.1467C54.6176 23.1467 54.9274 22.6498 55.888 21.4608C57.2513 19.7571 58.2428 18.2842 58.1963 18.018C58.1499 17.7163 57.4062 17.6276 55.826 17.7695Z" fill="url(#paint29_linear_226_110)"/>
<path d="M69.0565 19.7217C68.917 19.8992 68.6072 20.2187 68.3593 20.4494C68.1114 20.6801 68.2354 20.6091 68.6382 20.3074C69.3663 19.775 69.6762 19.4201 69.4283 19.4201C69.3508 19.4201 69.1804 19.562 69.0565 19.7217Z" fill="url(#paint30_linear_226_110)"/>
<path d="M51.8754 20.3073C51.8754 20.396 51.9839 20.4847 52.1078 20.4847C52.2318 20.4847 52.3402 20.5557 52.3402 20.6444C52.3402 20.7332 52.5261 20.9284 52.774 21.1059C53.0838 21.3366 53.0529 21.2478 52.6036 20.7687C51.9684 20.0943 51.8754 20.0233 51.8754 20.3073Z" fill="url(#paint31_linear_226_110)"/>
<path d="M69.3044 22.4369L68.6847 22.774L69.2269 22.6676C69.5212 22.6143 69.9395 22.4546 70.1564 22.3304C70.7916 21.94 70.048 22.0464 69.3044 22.4369Z" fill="url(#paint32_linear_226_110)"/>
<path d="M68.2973 24.2825C68.2973 24.3358 68.4368 24.46 68.6072 24.5665C68.7776 24.673 68.917 24.7085 68.917 24.673C68.917 24.6197 68.7776 24.4955 68.6072 24.389C68.4368 24.2825 68.2973 24.2471 68.2973 24.2825Z" fill="url(#paint33_linear_226_110)"/>
<path d="M51.2248 24.5131C51.3332 24.5664 51.4726 24.5486 51.5191 24.4954C51.5811 24.4422 51.4881 24.3889 51.3177 24.4067C51.1473 24.4067 51.1008 24.4599 51.2248 24.5131Z" fill="url(#paint34_linear_226_110)"/>
<path d="M69.072 25.0811C69.072 25.1699 69.1494 25.3119 69.2269 25.3651C69.3198 25.4183 69.3818 25.4006 69.3818 25.2941C69.3818 25.2054 69.3198 25.0634 69.2269 25.0102C69.1494 24.9569 69.072 24.9747 69.072 25.0811Z" fill="url(#paint35_linear_226_110)"/>
<path d="M59.2033 25.8443C58.1344 27.5657 56.3682 32.0911 56.6471 32.4105C56.802 32.588 57.0499 32.2153 57.5921 30.9908C57.9485 30.1922 58.1189 30.1212 59.3583 30.3519L59.9315 30.4761L59.947 31.5587C59.9934 34.3626 60.3653 35.5161 60.6906 33.7947C61.0004 32.1443 60.799 26.7848 60.3962 25.5248C60.1794 24.886 59.7301 25.0102 59.2033 25.8443ZM59.916 28.8434L59.9315 29.8372L59.2033 29.6598C58.785 29.5533 58.4287 29.4468 58.3977 29.4113C58.3667 29.3936 58.5217 29.0387 58.7541 28.6482C58.9709 28.2578 59.1569 27.9029 59.1569 27.8496C59.1569 27.7964 59.2808 27.5302 59.4202 27.2817L59.6991 26.8026L59.792 27.3172C59.854 27.6189 59.9005 28.2933 59.916 28.8434Z" fill="url(#paint36_linear_226_110)"/>
<path d="M67.1509 25.791C67.0889 25.8797 66.9805 26.8912 66.903 28.0625C66.8101 29.216 66.6861 30.6713 66.6087 31.3101C66.4228 33.0493 66.5622 33.209 67.6931 32.5524C68.8086 31.8958 69.7226 29.6242 69.3818 28.311C69.1649 27.4236 68.6537 26.6073 68.0185 26.0927C67.3678 25.5958 67.2749 25.5603 67.1509 25.791ZM68.3593 27.6721C68.8551 28.8434 68.5452 30.5115 67.6777 31.3989L67.3213 31.7538L67.4298 30.618C67.4763 29.9969 67.5227 28.8079 67.5227 27.9738C67.5227 26.5008 67.5227 26.4653 67.8171 26.767C67.9875 26.9445 68.2354 27.3527 68.3593 27.6721Z" fill="url(#paint37_linear_226_110)"/>
<path d="M53.2543 26.128C52.6191 26.1458 52.0149 26.2168 51.8909 26.2522C51.4726 26.4297 52.0304 26.8379 52.867 26.9444C53.6726 27.0686 53.7035 27.0863 53.7965 27.7252C53.843 28.0801 53.8895 29.0385 53.8895 29.8371C53.8895 32.0021 54.4007 34.5044 54.85 34.5044C54.9584 34.5044 54.9739 33.4219 54.8965 30.8131L54.788 27.1396L55.6866 27.1573C56.926 27.1751 57.1429 27.0863 57.1429 26.6072C57.1429 26.0748 56.802 25.9506 55.4697 26.0215C54.881 26.057 53.8895 26.0925 53.2543 26.128Z" fill="url(#paint38_linear_226_110)"/>
<path d="M65.1214 26.2168C65.0749 26.3233 65.013 26.9799 64.982 27.6366C64.9355 28.3109 64.8735 28.9143 64.8271 28.9675C64.7806 29.0208 64.2848 28.5239 63.7271 27.8673C62.3793 26.2523 62.2089 26.3056 62.0539 28.4174C61.93 30.2098 62.0849 32.9073 62.3328 32.9428C62.5342 32.9605 62.6891 31.9135 62.7356 30.0678C62.7511 29.2337 62.7976 28.4884 62.844 28.4174C62.875 28.3287 63.4173 28.8788 64.0215 29.6242C65.4158 31.2923 65.6482 31.2923 65.6791 29.5532C65.6946 28.9143 65.7256 28.1335 65.7411 27.8495C65.8031 27.0154 65.6482 26.1991 65.4158 26.0926C65.2918 26.0394 65.1524 26.0926 65.1214 26.2168Z" fill="url(#paint39_linear_226_110)"/>
<path d="M52.4332 28.7547C52.0614 29.1628 52.1388 29.2338 52.5726 28.8966C52.7895 28.7369 52.9599 28.5772 52.9599 28.5417C52.9599 28.3642 52.6501 28.4885 52.4332 28.7547Z" fill="url(#paint40_linear_226_110)"/>
<path d="M51.6895 29.4823C51.798 29.5355 51.9374 29.5178 51.9839 29.4645C52.0459 29.4113 51.9529 29.358 51.7825 29.3758C51.6121 29.3758 51.5656 29.429 51.6895 29.4823Z" fill="url(#paint41_linear_226_110)"/>
<path d="M64.5792 32.8008C64.5792 32.996 65.2299 34.5222 65.2918 34.4512C65.3693 34.3802 64.7496 32.7298 64.6566 32.7298C64.6102 32.7298 64.5792 32.7653 64.5792 32.8008Z" fill="url(#paint42_linear_226_110)"/>
<path d="M58.0724 34.398C58.0724 34.54 57.9949 34.6819 57.8865 34.7174C57.7626 34.7707 57.7471 34.8239 57.871 34.9127C57.9485 34.9659 58.1034 34.8239 58.1963 34.5932C58.3048 34.327 58.3203 34.1495 58.2273 34.1495C58.1344 34.1495 58.0724 34.256 58.0724 34.398Z" fill="url(#paint43_linear_226_110)"/>
<path d="M15.6233 34.8773C15.6233 34.966 15.7008 35.0015 15.7782 34.9483C15.8712 34.895 15.9332 34.8063 15.9332 34.753C15.9332 34.7175 15.8712 34.6821 15.7782 34.6821C15.7008 34.6821 15.6233 34.7708 15.6233 34.8773Z" fill="url(#paint44_linear_226_110)"/>
<path d="M63.82 35.0724C63.8046 35.3564 63.882 35.5693 63.9595 35.5693C64.1454 35.5693 64.1454 35.4274 63.9595 34.9482C63.8355 34.6288 63.82 34.6465 63.82 35.0724Z" fill="url(#paint45_linear_226_110)"/>
<path d="M57.6076 35.3209C57.6076 35.4629 57.6851 35.5339 57.7626 35.4806C57.8555 35.4096 57.8865 35.2854 57.84 35.1967C57.7006 34.9482 57.6076 35.0015 57.6076 35.3209Z" fill="url(#paint46_linear_226_110)"/>
<path d="M59.2653 35.5161C59.2033 35.5693 59.1569 35.7113 59.1569 35.8178C59.1569 35.9243 59.2343 35.9065 59.3428 35.7823C59.4357 35.6758 59.4822 35.5338 59.4512 35.4806C59.4047 35.4274 59.3118 35.4451 59.2653 35.5161Z" fill="url(#paint47_linear_226_110)"/>
<path d="M59.0019 36.5276C59.0019 36.7938 59.0639 36.9713 59.1414 36.918C59.2963 36.7938 59.2808 36.3679 59.1104 36.1727C59.0484 36.1017 59.0019 36.2614 59.0019 36.5276Z" fill="url(#paint48_linear_226_110)"/>
<defs>
<linearGradient id="paint0_linear_226_110" x1="36.2853" y1="0" x2="36.2853" y2="65" gradientUnits="userSpaceOnUse">
<stop offset="0.769999" stop-color="white"/>
<stop offset="1" stop-color="#212121"/>
</linearGradient>
<linearGradient id="paint1_linear_226_110" x1="32.9046" y1="11.4302" x2="32.9046" y2="11.9663" gradientUnits="userSpaceOnUse">
<stop offset="0.769999" stop-color="white"/>
<stop offset="1" stop-color="#212121"/>
</linearGradient>
<linearGradient id="paint2_linear_226_110" x1="33.173" y1="12.6681" x2="33.173" y2="13.5083" gradientUnits="userSpaceOnUse">
<stop offset="0.769999" stop-color="white"/>
<stop offset="1" stop-color="#212121"/>
</linearGradient>
<linearGradient id="paint3_linear_226_110" x1="46.6132" y1="11.4694" x2="46.6132" y2="14.7253" gradientUnits="userSpaceOnUse">
<stop offset="0.769999" stop-color="white"/>
<stop offset="1" stop-color="#212121"/>
</linearGradient>
<linearGradient id="paint4_linear_226_110" x1="46.836" y1="12.338" x2="46.836" y2="13.881" gradientUnits="userSpaceOnUse">
<stop offset="0.769999" stop-color="white"/>
<stop offset="1" stop-color="#212121"/>
</linearGradient>
<linearGradient id="paint5_linear_226_110" x1="49.4745" y1="13.568" x2="49.4745" y2="14.0952" gradientUnits="userSpaceOnUse">
<stop offset="0.769999" stop-color="white"/>
<stop offset="1" stop-color="#212121"/>
</linearGradient>
<linearGradient id="paint6_linear_226_110" x1="47.7087" y1="14.1176" x2="47.7087" y2="15.0906" gradientUnits="userSpaceOnUse">
<stop offset="0.769999" stop-color="white"/>
<stop offset="1" stop-color="#212121"/>
</linearGradient>
<linearGradient id="paint7_linear_226_110" x1="45.8297" y1="14.4509" x2="45.8297" y2="15.0466" gradientUnits="userSpaceOnUse">
<stop offset="0.769999" stop-color="white"/>
<stop offset="1" stop-color="#212121"/>
</linearGradient>
<linearGradient id="paint8_linear_226_110" x1="48.9343" y1="14.4607" x2="48.9343" y2="14.8945" gradientUnits="userSpaceOnUse">
<stop offset="0.769999" stop-color="white"/>
<stop offset="1" stop-color="#212121"/>
</linearGradient>
<linearGradient id="paint9_linear_226_110" x1="44.1679" y1="15.031" x2="44.1679" y2="15.2812" gradientUnits="userSpaceOnUse">
<stop offset="0.769999" stop-color="white"/>
<stop offset="1" stop-color="#212121"/>
</linearGradient>
<linearGradient id="paint10_linear_226_110" x1="48.3122" y1="15.1608" x2="48.3122" y2="15.452" gradientUnits="userSpaceOnUse">
<stop offset="0.769999" stop-color="white"/>
<stop offset="1" stop-color="#212121"/>
</linearGradient>
<linearGradient id="paint11_linear_226_110" x1="47.7994" y1="16.0482" x2="47.7994" y2="16.3257" gradientUnits="userSpaceOnUse">
<stop offset="0.769999" stop-color="white"/>
<stop offset="1" stop-color="#212121"/>
</linearGradient>
<linearGradient id="paint12_linear_226_110" x1="25.2083" y1="11.4951" x2="25.2083" y2="12.4988" gradientUnits="userSpaceOnUse">
<stop offset="0.769999" stop-color="white"/>
<stop offset="1" stop-color="#212121"/>
</linearGradient>
<linearGradient id="paint13_linear_226_110" x1="16.1559" y1="17.0886" x2="16.1559" y2="18.4858" gradientUnits="userSpaceOnUse">
<stop offset="0.769999" stop-color="white"/>
<stop offset="1" stop-color="#212121"/>
</linearGradient>
<linearGradient id="paint14_linear_226_110" x1="17.2348" y1="18.0466" x2="17.2348" y2="18.8384" gradientUnits="userSpaceOnUse">
<stop offset="0.769999" stop-color="white"/>
<stop offset="1" stop-color="#212121"/>
</linearGradient>
<linearGradient id="paint15_linear_226_110" x1="35.3501" y1="20.7138" x2="35.3501" y2="21.4894" gradientUnits="userSpaceOnUse">
<stop offset="0.769999" stop-color="white"/>
<stop offset="1" stop-color="#212121"/>
</linearGradient>
<linearGradient id="paint16_linear_226_110" x1="37.9601" y1="20.6622" x2="37.9601" y2="21.0171" gradientUnits="userSpaceOnUse">
<stop offset="0.769999" stop-color="white"/>
<stop offset="1" stop-color="#212121"/>
</linearGradient>
<linearGradient id="paint17_linear_226_110" x1="31.9648" y1="24.0652" x2="31.9648" y2="24.5046" gradientUnits="userSpaceOnUse">
<stop offset="0.769999" stop-color="white"/>
<stop offset="1" stop-color="#212121"/>
</linearGradient>
<linearGradient id="paint18_linear_226_110" x1="31.5278" y1="24.6359" x2="31.5278" y2="25.3596" gradientUnits="userSpaceOnUse">
<stop offset="0.769999" stop-color="white"/>
<stop offset="1" stop-color="#212121"/>
</linearGradient>
<linearGradient id="paint19_linear_226_110" x1="31.1621" y1="27.9336" x2="31.1621" y2="28.2157" gradientUnits="userSpaceOnUse">
<stop offset="0.769999" stop-color="white"/>
<stop offset="1" stop-color="#212121"/>
</linearGradient>
<linearGradient id="paint20_linear_226_110" x1="41.3128" y1="25.2764" x2="41.3128" y2="25.6313" gradientUnits="userSpaceOnUse">
<stop offset="0.769999" stop-color="white"/>
<stop offset="1" stop-color="#212121"/>
</linearGradient>
<linearGradient id="paint21_linear_226_110" x1="34.7697" y1="37.1959" x2="34.7697" y2="38.2141" gradientUnits="userSpaceOnUse">
<stop offset="0.769999" stop-color="white"/>
<stop offset="1" stop-color="#212121"/>
</linearGradient>
<linearGradient id="paint22_linear_226_110" x1="28.0172" y1="46.2173" x2="28.0172" y2="46.5723" gradientUnits="userSpaceOnUse">
<stop offset="0.769999" stop-color="white"/>
<stop offset="1" stop-color="#212121"/>
</linearGradient>
<linearGradient id="paint23_linear_226_110" x1="28.5212" y1="46.2209" x2="28.5212" y2="46.8838" gradientUnits="userSpaceOnUse">
<stop offset="0.769999" stop-color="white"/>
<stop offset="1" stop-color="#212121"/>
</linearGradient>
<linearGradient id="paint24_linear_226_110" x1="60.9431" y1="14.5647" x2="60.9431" y2="23.2836" gradientUnits="userSpaceOnUse">
<stop offset="0.769999" stop-color="white"/>
<stop offset="1" stop-color="#212121"/>
</linearGradient>
<linearGradient id="paint25_linear_226_110" x1="64.3886" y1="14.8553" x2="64.3886" y2="15.8707" gradientUnits="userSpaceOnUse">
<stop offset="0.769999" stop-color="white"/>
<stop offset="1" stop-color="#212121"/>
</linearGradient>
<linearGradient id="paint26_linear_226_110" x1="57.202" y1="15.0722" x2="57.202" y2="16.3038" gradientUnits="userSpaceOnUse">
<stop offset="0.769999" stop-color="white"/>
<stop offset="1" stop-color="#212121"/>
</linearGradient>
<linearGradient id="paint27_linear_226_110" x1="64.1256" y1="16.1215" x2="64.1256" y2="16.5597" gradientUnits="userSpaceOnUse">
<stop offset="0.769999" stop-color="white"/>
<stop offset="1" stop-color="#212121"/>
</linearGradient>
<linearGradient id="paint28_linear_226_110" x1="65.163" y1="16.758" x2="65.163" y2="25.3929" gradientUnits="userSpaceOnUse">
<stop offset="0.769999" stop-color="white"/>
<stop offset="1" stop-color="#212121"/>
</linearGradient>
<linearGradient id="paint29_linear_226_110" x1="56.085" y1="17.7035" x2="56.085" y2="24.1875" gradientUnits="userSpaceOnUse">
<stop offset="0.769999" stop-color="white"/>
<stop offset="1" stop-color="#212121"/>
</linearGradient>
<linearGradient id="paint30_linear_226_110" x1="68.8721" y1="19.4201" x2="68.8721" y2="20.5859" gradientUnits="userSpaceOnUse">
<stop offset="0.769999" stop-color="white"/>
<stop offset="1" stop-color="#212121"/>
</linearGradient>
<linearGradient id="paint31_linear_226_110" x1="52.427" y1="20.1502" x2="52.427" y2="21.2277" gradientUnits="userSpaceOnUse">
<stop offset="0.769999" stop-color="white"/>
<stop offset="1" stop-color="#212121"/>
</linearGradient>
<linearGradient id="paint32_linear_226_110" x1="69.5406" y1="22.0854" x2="69.5406" y2="22.774" gradientUnits="userSpaceOnUse">
<stop offset="0.769999" stop-color="white"/>
<stop offset="1" stop-color="#212121"/>
</linearGradient>
<linearGradient id="paint33_linear_226_110" x1="68.6072" y1="24.2692" x2="68.6072" y2="24.6863" gradientUnits="userSpaceOnUse">
<stop offset="0.769999" stop-color="white"/>
<stop offset="1" stop-color="#212121"/>
</linearGradient>
<linearGradient id="paint34_linear_226_110" x1="51.3466" y1="24.4032" x2="51.3466" y2="24.5453" gradientUnits="userSpaceOnUse">
<stop offset="0.769999" stop-color="white"/>
<stop offset="1" stop-color="#212121"/>
</linearGradient>
<linearGradient id="paint35_linear_226_110" x1="69.2269" y1="24.9811" x2="69.2269" y2="25.3942" gradientUnits="userSpaceOnUse">
<stop offset="0.769999" stop-color="white"/>
<stop offset="1" stop-color="#212121"/>
</linearGradient>
<linearGradient id="paint36_linear_226_110" x1="58.7296" y1="25.1197" x2="58.7296" y2="34.6042" gradientUnits="userSpaceOnUse">
<stop offset="0.769999" stop-color="white"/>
<stop offset="1" stop-color="#212121"/>
</linearGradient>
<linearGradient id="paint37_linear_226_110" x1="67.9971" y1="25.654" x2="67.9971" y2="32.9092" gradientUnits="userSpaceOnUse">
<stop offset="0.769999" stop-color="white"/>
<stop offset="1" stop-color="#212121"/>
</linearGradient>
<linearGradient id="paint38_linear_226_110" x1="54.4458" y1="26.0033" x2="54.4458" y2="34.5044" gradientUnits="userSpaceOnUse">
<stop offset="0.769999" stop-color="white"/>
<stop offset="1" stop-color="#212121"/>
</linearGradient>
<linearGradient id="paint39_linear_226_110" x1="63.8826" y1="26.072" x2="63.8826" y2="32.943" gradientUnits="userSpaceOnUse">
<stop offset="0.769999" stop-color="white"/>
<stop offset="1" stop-color="#212121"/>
</linearGradient>
<linearGradient id="paint40_linear_226_110" x1="52.5776" y1="28.4588" x2="52.5776" y2="29.1108" gradientUnits="userSpaceOnUse">
<stop offset="0.769999" stop-color="white"/>
<stop offset="1" stop-color="#212121"/>
</linearGradient>
<linearGradient id="paint41_linear_226_110" x1="51.8113" y1="29.3723" x2="51.8113" y2="29.5144" gradientUnits="userSpaceOnUse">
<stop offset="0.769999" stop-color="white"/>
<stop offset="1" stop-color="#212121"/>
</linearGradient>
<linearGradient id="paint42_linear_226_110" x1="64.9389" y1="32.7298" x2="64.9389" y2="34.4536" gradientUnits="userSpaceOnUse">
<stop offset="0.769999" stop-color="white"/>
<stop offset="1" stop-color="#212121"/>
</linearGradient>
<linearGradient id="paint43_linear_226_110" x1="58.0369" y1="34.1495" x2="58.0369" y2="34.9238" gradientUnits="userSpaceOnUse">
<stop offset="0.769999" stop-color="white"/>
<stop offset="1" stop-color="#212121"/>
</linearGradient>
<linearGradient id="paint44_linear_226_110" x1="15.7782" y1="34.6821" x2="15.7782" y2="34.9733" gradientUnits="userSpaceOnUse">
<stop offset="0.769999" stop-color="white"/>
<stop offset="1" stop-color="#212121"/>
</linearGradient>
<linearGradient id="paint45_linear_226_110" x1="63.9585" y1="34.7283" x2="63.9585" y2="35.5693" gradientUnits="userSpaceOnUse">
<stop offset="0.769999" stop-color="white"/>
<stop offset="1" stop-color="#212121"/>
</linearGradient>
<linearGradient id="paint46_linear_226_110" x1="57.7345" y1="35.0406" x2="57.7345" y2="35.4983" gradientUnits="userSpaceOnUse">
<stop offset="0.769999" stop-color="white"/>
<stop offset="1" stop-color="#212121"/>
</linearGradient>
<linearGradient id="paint47_linear_226_110" x1="59.3088" y1="35.4496" x2="59.3088" y2="35.8877" gradientUnits="userSpaceOnUse">
<stop offset="0.769999" stop-color="white"/>
<stop offset="1" stop-color="#212121"/>
</linearGradient>
<linearGradient id="paint48_linear_226_110" x1="59.1252" y1="36.1558" x2="59.1252" y2="36.9275" gradientUnits="userSpaceOnUse">
<stop offset="0.769999" stop-color="white"/>
<stop offset="1" stop-color="#212121"/>
</linearGradient>
</defs>
</svg>
